<svg xmlns="http://www.w3.org/2000/svg" fill="none" viewBox="0 0 191 30"><path fill="#fff" d="M23.226 16.238 16.56 27.653 9.896 16.238zm1.785-1.02H8.103l8.458 14.454zM34.814 2.04l6.665 11.415h-13.33zm0-2.04-8.458 14.454h16.915z"/><path fill="#4caf4f" d="m0 0 7.091 12.785L14.841.32zM16.561 1.12 24 13.833H9.108zM25.915 16.609l7.446 13.063H18.115l7.569-13.063zM27.527 15.817l7.287 12.863L42.2 15.817z"/><path fill="#fff" d="M74.22 2.063V27.24h-4.598L58.67 11.394h-.184v15.845h-5.323V2.063h4.671L68.7 17.897h.221V2.063zM87.124 27.608q-2.913 0-5.015-1.18-2.09-1.193-3.221-3.368-1.131-2.188-1.131-5.176 0-2.913 1.131-5.113 1.13-2.2 3.184-3.43 2.065-1.23 4.843-1.23 1.869 0 3.48.603a7.7 7.7 0 0 1 2.827 1.782q1.216 1.193 1.893 3 .675 1.794.676 4.204v1.438H79.847v-3.245H90.86q0-1.131-.491-2.004a3.5 3.5 0 0 0-1.365-1.364q-.86-.504-2.004-.504-1.193 0-2.114.553a3.9 3.9 0 0 0-1.426 1.463 4.13 4.13 0 0 0-.529 2.028v3.086q0 1.401.517 2.421a3.8 3.8 0 0 0 1.487 1.574q.96.553 2.274.553.873 0 1.598-.246t1.242-.737.787-1.205l4.843.32a6.6 6.6 0 0 1-1.512 3.048q-1.13 1.29-2.926 2.016-1.782.713-4.118.713M103.247 8.357l3.466 6.602 3.553-6.602h5.372l-5.471 9.441 5.618 9.441h-5.347l-3.725-6.527-3.663 6.527h-5.41l5.607-9.44-5.41-9.442zM126.603 27.608q-2.901 0-4.991-1.23-2.077-1.24-3.196-3.441-1.106-2.2-1.106-5.065 0-2.9 1.118-5.09 1.131-2.2 3.209-3.429 2.077-1.242 4.942-1.242 2.47 0 4.327.898 1.856.897 2.938 2.52 1.081 1.623 1.192 3.81h-4.942q-.209-1.413-1.106-2.273-.885-.873-2.323-.873-1.218 0-2.127.664-.897.652-1.401 1.905t-.504 3.036q0 1.808.491 3.074.505 1.266 1.414 1.93t2.127.663q.897 0 1.61-.368a3.1 3.1 0 0 0 1.192-1.07q.48-.713.627-1.709h4.942q-.123 2.164-1.18 3.811-1.045 1.635-2.889 2.557t-4.364.922M146.994 27.608q-2.913 0-5.015-1.18-2.09-1.193-3.221-3.368-1.131-2.188-1.131-5.176 0-2.913 1.131-5.113 1.13-2.2 3.184-3.43 2.065-1.23 4.843-1.23 1.87 0 3.479.603a7.7 7.7 0 0 1 2.828 1.782q1.217 1.193 1.893 3 .675 1.794.676 4.204v1.438h-15.944v-3.245h11.014q0-1.131-.491-2.004a3.5 3.5 0 0 0-1.365-1.364q-.861-.504-2.004-.504-1.192 0-2.114.553a3.9 3.9 0 0 0-1.426 1.463 4.13 4.13 0 0 0-.529 2.028v3.086q0 1.401.517 2.421.528 1.02 1.487 1.574.958.553 2.274.553a5 5 0 0 0 1.598-.246q.726-.246 1.242-.737a3.2 3.2 0 0 0 .787-1.205l4.843.32a6.6 6.6 0 0 1-1.512 3.048q-1.13 1.29-2.926 2.016-1.782.713-4.118.713M164.315 16.323V27.24h-5.237V8.357h4.991v3.332h.221a5.27 5.27 0 0 1 2.103-2.606q1.474-.972 3.577-.972 1.966 0 3.43.861 1.463.86 2.274 2.459.811 1.586.811 3.786v12.022h-5.237V16.151q.012-1.733-.885-2.704-.897-.984-2.471-.984-1.057 0-1.868.455a3.17 3.17 0 0 0-1.254 1.328q-.443.86-.455 2.077M190.656 8.357v3.934h-11.371V8.357zm-8.79-4.523h5.237v17.603q0 .725.221 1.131.222.393.615.553.405.16.934.16.369 0 .738-.061.369-.074.565-.111l.824 3.897q-.393.123-1.106.282-.713.172-1.734.21-1.893.073-3.319-.505-1.413-.578-2.2-1.794t-.775-3.074z"/></svg>