<svg xmlns="http://www.w3.org/2000/svg" fill="none" viewBox="0 0 32 32"><path fill="#fff" fill-rule="evenodd" d="M0 16C0 7.163 7.163 0 16 0s16 7.163 16 16-7.163 16-16 16S0 24.837 0 16" clip-rule="evenodd" opacity=".1"/><path fill="#fff" fill-rule="evenodd" d="M24.533 15.988a8.5 8.5 0 0 1-.671 3.317 8.587 8.587 0 0 1-3.09 3.749 8.6 8.6 0 0 1-1.45.785 8.57 8.57 0 0 1-6.644 0 8.6 8.6 0 0 1-1.45-.786 8.598 8.598 0 0 1-3.09-3.749 8.5 8.5 0 0 1-.499-5.031 8.5 8.5 0 0 1 1.285-3.05 8.6 8.6 0 0 1 2.304-2.3A8.452 8.452 0 0 1 14.28 7.64a8.6 8.6 0 0 1 5.04.496 8.56 8.56 0 0 1 3.754 3.087 8.446 8.446 0 0 1 1.285 3.05c.115.56.173 1.138.173 1.715M12.89 9.406a7.29 7.29 0 0 0-4.022 5.082c.192.001 3.23.04 6.728-.889a44 44 0 0 0-2.706-4.193m3.31 5.314c-3.752 1.122-7.353 1.041-7.482 1.036q-.005.116-.006.232a7.24 7.24 0 0 0 1.867 4.863c-.002-.004 1.992-3.537 5.925-4.807a7 7 0 0 1 .287-.087 25 25 0 0 0-.591-1.237m4.612-4.193A7.26 7.26 0 0 0 16 8.712c-.592 0-1.167.071-1.718.204.11.146 1.478 1.96 2.725 4.244 2.75-1.029 3.787-2.607 3.805-2.633m-3.524 6.635-.048.016c-4.3 1.497-5.704 4.513-5.72 4.546a7.28 7.28 0 0 0 4.48 1.54 7.3 7.3 0 0 0 2.845-.576c-.108-.636-.531-2.864-1.557-5.526m2.784 4.861a7.28 7.28 0 0 0 3.123-4.881c-.15-.049-2.19-.693-4.541-.317.955 2.623 1.344 4.76 1.418 5.198m-2.504-7.778a23 23 0 0 1 .641 1.432c2.504-.315 4.97.215 5.076.236a7.23 7.23 0 0 0-1.657-4.548c-.014.02-1.183 1.706-4.06 2.88" clip-rule="evenodd"/></svg>