<svg xmlns="http://www.w3.org/2000/svg" fill="none" viewBox="0 0 32 32"><path fill="#fff" fill-rule="evenodd" d="M0 16C0 7.163 7.163 0 16 0s16 7.163 16 16-7.163 16-16 16S0 24.837 0 16" clip-rule="evenodd" opacity=".1"/><path fill="#fff" fill-rule="evenodd" d="M16 7.467c-2.317 0-2.608.01-3.518.051-.908.042-1.528.186-2.07.397a4.2 4.2 0 0 0-1.513.984c-.474.474-.766.95-.984 1.511-.212.543-.356 1.163-.397 2.071-.04.91-.051 1.202-.051 3.52s.01 2.607.051 3.517c.042.908.186 1.528.397 2.071.218.561.51 1.037.984 1.512.474.474.95.767 1.511.985.543.21 1.163.354 2.072.396.91.041 1.2.052 3.518.052s2.607-.01 3.518-.052c.908-.042 1.529-.185 2.072-.396a4.2 4.2 0 0 0 1.51-.985c.475-.475.767-.95.985-1.512.21-.543.354-1.163.397-2.071.04-.91.051-1.2.051-3.518s-.01-2.608-.051-3.518c-.043-.909-.187-1.53-.397-2.072A4.2 4.2 0 0 0 23.1 8.9a4.2 4.2 0 0 0-1.51-.984c-.545-.211-1.165-.355-2.074-.397-.91-.041-1.2-.051-3.518-.051zm-.765 1.537h.766c2.278 0 2.548.009 3.448.05.832.038 1.284.177 1.584.293.399.155.682.34.981.639.299.298.484.583.639.981.116.3.256.752.293 1.584.041.9.05 1.17.05 3.447s-.009 2.548-.05 3.447c-.038.832-.177 1.284-.293 1.584-.155.398-.34.682-.639.98a2.64 2.64 0 0 1-.98.639c-.301.117-.753.256-1.585.294-.9.04-1.17.05-3.448.05s-2.549-.01-3.448-.05c-.833-.039-1.284-.178-1.585-.294a2.64 2.64 0 0 1-.981-.639 2.65 2.65 0 0 1-.639-.98c-.117-.3-.256-.752-.294-1.584-.04-.9-.049-1.17-.049-3.449s.008-2.548.05-3.447c.037-.832.176-1.284.293-1.585.155-.398.34-.682.639-.98.298-.3.583-.484.981-.64.3-.117.752-.255 1.585-.294.787-.035 1.092-.046 2.682-.048zm5.32 1.417a1.024 1.024 0 1 0 0 2.048 1.024 1.024 0 0 0 0-2.048m-4.554 1.197a4.382 4.382 0 1 0 0 8.765 4.382 4.382 0 0 0 0-8.765m0 1.538a2.844 2.844 0 1 1 0 5.689 2.844 2.844 0 0 1 0-5.69" clip-rule="evenodd"/></svg>