<svg xmlns="http://www.w3.org/2000/svg" fill="none" viewBox="0 0 32 32"><path fill="#fff" fill-rule="evenodd" d="M0 16C0 7.163 7.163 0 16 0s16 7.163 16 16-7.163 16-16 16S0 24.837 0 16" clip-rule="evenodd" opacity=".1"/><path fill="#fff" fill-rule="evenodd" d="M22.668 10.5a2.17 2.17 0 0 1 1.509 1.549c.356 1.366.356 4.218.356 4.218s0 2.851-.356 4.218a2.17 2.17 0 0 1-1.51 1.549C21.338 22.4 16 22.4 16 22.4s-5.337 0-6.668-.366a2.17 2.17 0 0 1-1.509-1.55c-.356-1.366-.356-4.217-.356-4.217s0-2.852.356-4.218a2.17 2.17 0 0 1 1.51-1.55c1.33-.366 6.667-.366 6.667-.366s5.337 0 6.668.367M14.4 13.867V19.2l4.267-2.666z" clip-rule="evenodd"/></svg>