<svg xmlns="http://www.w3.org/2000/svg" fill="none" viewBox="0 0 48 48"><path fill="#103e13" d="M26.916 19.01a.566.566 0 0 1-.565-.565v-.961a.566.566 0 0 1 1.131 0v.961a.566.566 0 0 1-.566.566M24.538 19.01a.566.566 0 0 1-.566-.565v-.961a.566.566 0 0 1 1.132 0v.961a.566.566 0 0 1-.566.566M22.16 19.01a.566.566 0 0 1-.566-.565v-.961a.566.566 0 0 1 1.132 0v.961a.566.566 0 0 1-.566.566M26.916 22.942a.566.566 0 0 1-.565-.566v-.96a.566.566 0 0 1 1.131 0v.96a.566.566 0 0 1-.566.566M24.538 22.942a.566.566 0 0 1-.566-.566v-.96a.566.566 0 0 1 1.132 0v.96a.566.566 0 0 1-.566.566M22.16 22.942a.566.566 0 0 1-.566-.566v-.96a.566.566 0 0 1 1.132 0v.96a.566.566 0 0 1-.566.566M26.916 26.873a.566.566 0 0 1-.565-.565v-.962a.566.566 0 0 1 1.131 0v.962a.566.566 0 0 1-.566.565M24.538 26.873a.566.566 0 0 1-.566-.565v-.962a.566.566 0 0 1 1.132 0v.962a.566.566 0 0 1-.566.565M22.16 26.873a.566.566 0 0 1-.566-.565v-.962a.566.566 0 0 1 1.132 0v.962a.566.566 0 0 1-.566.565M26.916 30.804a.566.566 0 0 1-.565-.566v-.961a.566.566 0 0 1 1.131 0v.961a.566.566 0 0 1-.566.566M24.538 30.804a.566.566 0 0 1-.566-.566v-.961a.566.566 0 0 1 1.132 0v.961a.566.566 0 0 1-.566.566M22.16 30.804a.566.566 0 0 1-.566-.566v-.961a.566.566 0 0 1 1.132 0v.961a.566.566 0 0 1-.566.566M26.916 34.735a.566.566 0 0 1-.565-.566v-.96a.566.566 0 0 1 1.131 0v.96a.566.566 0 0 1-.566.566M24.538 34.735a.566.566 0 0 1-.566-.566v-.96a.566.566 0 0 1 1.132 0v.96a.566.566 0 0 1-.566.566M22.16 34.735a.566.566 0 0 1-.566-.566v-.96a.566.566 0 0 1 1.132 0v.96a.567.567 0 0 1-.566.566"/><path fill="#103e13" d="M6 38.647c0 .312.254.566.566.566h34.448a.566.566 0 0 0 0-1.132h-1.046v-16.24a.566.566 0 0 0-.566-.567h-9.235V9.567a.566.566 0 0 0-.827-.502l-10.5 5.467a.56.56 0 0 0-.304.502V25.26H8.374a.566.566 0 0 0-.566.566v12.256H6.565a.565.565 0 0 0-.565.565m24.167-8.805h8.67v8.24h-8.67zm0-3.93h8.67v2.8l-8.67-.001zm0-3.506h8.67v2.375h-8.67zm-10.5-7.03 9.368-4.878v27.583h-9.368zm-7.931 18.188c0-1.175.93-2.13 2.074-2.13s2.074.955 2.074 2.13v4.518h-4.148zM8.94 26.391h9.596v11.69h-1.521v-4.519c0-1.797-1.437-3.26-3.205-3.26s-3.205 1.462-3.205 3.26v4.518H8.94z"/></svg>