<svg xmlns="http://www.w3.org/2000/svg" fill="none" viewBox="0 0 48 48"><path fill="#103e13" d="M23.99 10c-3.571 0-6.479 2.934-6.479 6.52a6.53 6.53 0 0 0 2.925 5.44 11.24 11.24 0 0 0-5.312 3.776 9.4 9.4 0 0 0-2.477-1.366 5.55 5.55 0 0 0 2.252-4.46c0-3.042-2.46-5.532-5.484-5.532s-5.483 2.49-5.483 5.532c0 1.826.89 3.451 2.254 4.462A9.49 9.49 0 0 0 0 33.293v2.882a.827.827 0 0 0 .83.826h12.646q.045.005.091.005h20.846q.046 0 .092-.005h12.646a.83.83 0 0 0 .824-.826v-2.882a9.49 9.49 0 0 0-6.18-8.921 5.55 5.55 0 0 0 2.254-4.462c0-3.042-2.46-5.532-5.483-5.532s-5.484 2.49-5.484 5.532c0 1.825.89 3.45 2.253 4.46-.9.331-1.734.794-2.48 1.369a11.24 11.24 0 0 0-5.31-3.779 6.53 6.53 0 0 0 2.925-5.44c0-3.586-2.909-6.52-6.48-6.52m0 1.654c2.671 0 4.824 2.168 4.824 4.866 0 2.678-2.12 4.824-4.76 4.859q-.033-.002-.064-.003l-.063.003c-2.642-.034-4.76-2.181-4.76-4.859 0-2.698 2.152-4.866 4.823-4.866M9.416 16.032c2.119 0 3.829 1.72 3.829 3.878 0 2.143-1.688 3.855-3.787 3.879l-.042-.002-.043.002c-2.099-.024-3.787-1.737-3.787-3.88 0-2.156 1.71-3.877 3.83-3.877m29.15 0c2.119 0 3.828 1.72 3.828 3.878 0 2.143-1.687 3.855-3.787 3.879l-.042-.002-.042.002c-2.1-.024-3.787-1.737-3.787-3.88 0-2.156 1.71-3.877 3.83-3.877m-14.64 7q.032.003.064.004l.063-.003c5.297.034 9.537 4.31 9.537 9.662v2.656H14.39v-2.656c0-5.353 4.238-9.628 9.535-9.662M9.353 25.446l.063.003q.032-.002.064-.003a7.66 7.66 0 0 1 4.728 1.666 11.3 11.3 0 0 0-1.47 5.585v2.65H1.654v-2.053c0-4.35 3.42-7.814 7.698-7.848m29.15 0 .063.003q.032-.002.063-.003c4.278.034 7.699 3.499 7.699 7.849v2.051h-11.09v-2.65a11.3 11.3 0 0 0-1.467-5.581 7.66 7.66 0 0 1 4.732-1.669"/></svg>