<svg xmlns="http://www.w3.org/2000/svg" fill="none" viewBox="0 0 442 434"><path fill="#263238" d="M376.369 433.13c0 .145-71.768.269-160.269.269s-160.3-.124-160.3-.269c0-.144 71.758-.268 160.3-.268s160.269.134 160.269.268"/><path fill="#4caf4f" d="M306.441 306.606c-15.968-11.152-19.586-31.853-18.955-50.467.103-3.101-.238-6.387 1.24-9.105s4.93-4.589 7.71-3.287c2.305 1.085 3.307 3.772 4.599 5.994a18.15 18.15 0 0 0 7.287 6.956c1.974 1.034 4.423 1.654 6.377.579 2.687-1.478 2.997-5.168 2.976-8.268q0-8.652-.103-17.281a28.8 28.8 0 0 1 .93-9.178c.961-2.935 3.1-5.653 6.025-6.48s6.574.879 7.235 3.896q.171 1.92.093 3.845c.083 1.292.682 2.708 1.891 3.101s2.471-.507 3.401-1.416c3.183-3.101 5.353-7.142 7.369-11.131 2.015-3.99 3.989-8.093 6.883-11.493s6.894-6.098 11.369-6.356c4.475-.259 9.136 2.491 10.252 6.831 1.117 4.341-1.416 8.775-4.134 12.299a69 69 0 0 1-14.355 13.695 5.6 5.6 0 0 0-2.408 2.573c-.672 2.067 1.281 4.134 3.317 4.785 2.305.765 4.806.527 7.235.817s5.012 1.343 5.932 3.617c1.261 3.163-1.385 6.47-3.979 8.64a59.3 59.3 0 0 1-17.487 10.098c-2.274.827-4.661 1.561-6.501 3.152s-2.935 4.372-1.829 6.553 3.948 2.873 6.335 2.429 4.506-1.726 6.78-2.584c4.248-1.602 9.726-1.313 12.402 2.356a9.77 9.77 0 0 1 1.034 8.651 22.5 22.5 0 0 1-4.682 7.637 59.56 59.56 0 0 1-25.487 17.808c-9.849 3.411-18.975 4.341-28.763.755"/><path fill="#263238" d="M368.473 199.068s-.093.103-.3.289l-.92.816c-.806.724-1.994 1.778-3.493 3.173a115 115 0 0 0-11.803 12.744c-2.305 2.863-4.692 6.108-7.235 9.632a264 264 0 0 0-7.772 11.369 141 141 0 0 0-7.617 13.208c-1.199 2.367-2.253 4.837-3.338 7.359l-3.204 7.7a284 284 0 0 0-11.017 29.734 138.5 138.5 0 0 0-5.168 25.353 101 101 0 0 0-.289 17.456c.165 2.067.32 3.648.465 4.723.062.517.103.931.144 1.23v.424a2.2 2.2 0 0 1-.093-.413c-.051-.3-.113-.703-.196-1.22-.186-1.034-.382-2.666-.568-4.734a96 96 0 0 1 .103-17.507 136 136 0 0 1 5.054-25.467 278 278 0 0 1 10.986-29.806l3.287-7.669c1.085-2.512 2.15-5.003 3.359-7.38a138 138 0 0 1 7.679-13.239c2.646-4.134 5.312-7.876 7.824-11.369s4.94-6.759 7.234-9.612a110 110 0 0 1 11.958-12.65 133 133 0 0 1 3.576-3.101l.961-.775q.177-.154.383-.268"/><path fill="#263238" d="M328.992 250.062a6.4 6.4 0 0 1-.3-1.313c-.165-.858-.351-2.067-.568-3.638-.444-3.1-.899-7.348-1.385-12.051a286 286 0 0 0-1.488-12.03c-.238-1.53-.445-2.76-.589-3.617a5.6 5.6 0 0 1-.176-1.344c.178.414.306.848.382 1.292.228.847.486 2.067.776 3.607.589 3.101 1.167 7.317 1.653 12.03s.899 8.847 1.22 12.061c.155 1.447.289 2.677.393 3.659.08.443.108.894.082 1.344M368.762 242.641a8 8 0 0 1-1.529.186c-1.034.093-2.501.217-4.32.424-3.638.393-8.641 1.116-14.129 2.15a233 233 0 0 0-13.963 3.1c-1.767.455-3.193.868-4.134 1.147a7.5 7.5 0 0 1-1.55.372q.719-.36 1.488-.589a76 76 0 0 1 4.134-1.323c3.525-1.033 8.455-2.263 13.963-3.317a141 141 0 0 1 14.108-1.964 69 69 0 0 1 4.341-.238 8 8 0 0 1 1.591.052M311.732 294.214q-.166-.226-.268-.486l-.683-1.436c-.589-1.251-1.384-3.101-2.335-5.364-1.923-4.548-4.372-10.914-6.977-17.984-2.604-7.069-5.002-13.436-6.821-18.035-.889-2.232-1.623-4.062-2.17-5.426l-.579-1.478a2 2 0 0 1-.165-.537q.166.225.268.486l.682 1.436a178 178 0 0 1 2.336 5.364c1.923 4.548 4.372 10.914 6.976 17.984 2.605 7.069 5.003 13.435 6.822 18.035.889 2.232 1.622 4.061 2.16 5.426.238.589.434 1.033.589 1.478q.12.257.165.537"/><path fill="#263238" d="M364.525 277.192a2.2 2.2 0 0 1-.527.217l-1.53.517-5.653 1.829c-4.775 1.55-11.369 3.762-18.604 6.201s-13.859 4.61-18.665 6.057a217 217 0 0 1-5.705 1.664l-1.561.403a2.7 2.7 0 0 1-.558.113q.25-.143.527-.217l1.53-.516 5.653-1.83c4.775-1.55 11.369-3.762 18.604-6.201s13.849-4.61 18.655-6.056a208 208 0 0 1 5.715-1.664l1.561-.404q.272-.086.558-.113"/><path fill="#4caf4f" d="m342.986 26.49-5.323 1.901-2.284-6.956C331.183 8.61 317.809 1.798 305.521 6.13c-12.289 4.33-18.831 18.397-14.635 31.223l2.284 6.955-5.343 1.912a8.495 8.495 0 0 0-4.982 10.625l14.811 45.258a8 8 0 0 0 1.501 2.803 7.98 7.98 0 0 0 5.533 2.868 8 8 0 0 0 3.156-.39l55.159-19.73a8.54 8.54 0 0 0 5.034-10.728l-14.821-45.258a7.96 7.96 0 0 0-7.082-5.602 8 8 0 0 0-3.15.424m-42.044 7.234a13.635 13.635 0 0 1 8.02-17.105 12.777 12.777 0 0 1 16.361 8.382l2.274 6.956-24.381 8.723zm31.006 40.163 3.783 11.555a.94.94 0 0 1-.589 1.157l-5.302 1.891a.85.85 0 0 1-1.034-.558l-3.814-11.503a10.34 10.34 0 0 1-9.301-7.234 10.864 10.864 0 0 1 6.397-13.622 10.18 10.18 0 0 1 13.033 6.676 11.04 11.04 0 0 1-3.163 11.669z"/><path fill="#263238" d="M337.426 28.267c0 .145-9.87 3.855-22.149 8.268-12.278 4.413-22.293 7.958-22.345 7.855s9.871-3.845 22.159-8.268c12.289-4.424 22.283-7.99 22.335-7.855M349.146 30.169q.068.135.114.279c.082.206.175.475.299.806l1.106 3.1 3.969 11.555c1.654 4.9 3.628 10.708 5.819 17.157 1.033 3.235 2.253 6.604 3.39 10.149.608 1.827.871 3.751.775 5.674a7.6 7.6 0 0 1-.837 2.863 7.9 7.9 0 0 1-1.954 2.305 18.6 18.6 0 0 1-5.25 2.677l-5.323 1.912-10.077 3.607-17.063 6.077-11.524 4.051-3.101 1.034-.826.268a.9.9 0 0 1-.279.073s.082 0 .258-.124l.806-.321 3.101-1.168 11.462-4.216 17.032-6.202 10.056-3.637 5.323-1.923a17.7 17.7 0 0 0 5.095-2.594 7.4 7.4 0 0 0 1.819-2.14 6.8 6.8 0 0 0 .775-2.656 14.9 14.9 0 0 0-.744-5.467c-1.116-3.514-2.294-6.914-3.359-10.15-2.149-6.459-4.134-12.288-5.705-17.187s-2.894-8.836-3.803-11.606c-.434-1.354-.765-2.408-1.034-3.173l-.248-.827a1 1 0 0 1-.072-.196"/><path fill="#263238" d="M320.042 15.916s-.548-.268-1.561-.682a13.8 13.8 0 0 0-4.516-.91 15.5 15.5 0 0 0-6.677 1.262 14.9 14.9 0 0 0-6.315 5.28 13.97 13.97 0 0 0-2.428 7.845 24.2 24.2 0 0 0 1.033 6.77c.537 1.881 1.096 3.38 1.468 4.423q.33.796.537 1.633a9 9 0 0 1-.734-1.56c-.424-1.034-1.033-2.501-1.633-4.393a23.5 23.5 0 0 1-1.188-6.873 14.17 14.17 0 0 1 2.48-8.144 15.1 15.1 0 0 1 6.563-5.436 15.4 15.4 0 0 1 6.873-1.178c1.579.08 3.131.448 4.579 1.085q.581.268 1.116.62.222.098.403.258M320.517 56.358q.248-.15.517-.258a10 10 0 0 1 1.602-.569c.871-.257 1.77-.41 2.677-.454a9.1 9.1 0 0 1 3.627.547c2.646.93 5.075 3.628 6.274 7.235a10.4 10.4 0 0 1 0 5.932 13.44 13.44 0 0 1-3.328 5.571l.062-.279c1.375 3.773 2.873 7.865 4.424 12.134l.093.258-.259.093-2.367.786-5.167 1.726-.259.082-.082-.258c-1.416-4.279-2.967-8.268-4.134-12.185l.227.175a10.34 10.34 0 0 1-5.54-2.18 12.5 12.5 0 0 1-3.462-4.135 9.45 9.45 0 0 1-1.096-4.65 11.22 11.22 0 0 1 4.331-8.537 6.6 6.6 0 0 1 1.788-1.034q-.877.52-1.695 1.127a11 11 0 0 0-3.194 4.537 9.77 9.77 0 0 0 .321 8.34 12.1 12.1 0 0 0 3.379 3.97 9.84 9.84 0 0 0 5.282 2.066h.175l.052.155c1.137 3.845 2.698 7.865 4.134 12.165l-.341-.165 5.168-1.726 2.356-.796-.165.351c-1.54-4.268-3.028-8.371-4.393-12.144v-.155l.124-.124a13.16 13.16 0 0 0 3.266-5.343 10 10 0 0 0 0-5.674c-1.126-3.473-3.452-6.108-5.974-7.039a8.9 8.9 0 0 0-3.503-.589c-.893.02-1.781.142-2.646.362-1.54.383-2.263.734-2.274.682"/><path fill="#455a64" d="m288.571 354.779-103.239-.476a22.5 22.5 0 0 1-22.376-22.593l1.096-258.805a22.48 22.48 0 0 1 22.593-22.386l103.228.475a22.5 22.5 0 0 1 22.386 22.583l-1.095 258.795a22.497 22.497 0 0 1-22.593 22.407"/><path fill="#fff" d="M289.718 59.893h-20.009a4.97 4.97 0 0 0-4.536 3.154 5 5 0 0 0-.342 1.91v3.628a4.96 4.96 0 0 1-4.878 5.054l-39.006-.176a4.983 4.983 0 0 1-4.847-5.106V64.73a4.98 4.98 0 0 0-4.837-5.106h-7.038l-17.518-.083a15.753 15.753 0 0 0-15.844 15.596l-1.034 252.615a15.74 15.74 0 0 0 4.559 11.151 15.74 15.74 0 0 0 11.109 4.662l103.022.475a15.747 15.747 0 0 0 15.824-15.678l1.033-252.615a15.76 15.76 0 0 0-15.658-15.854"/><path fill="#4caf4f" d="m275.859 310.337-76.605-.331c-.796 0-1.437-.868-1.427-1.922l.083-20.04c0-1.034.651-1.923 1.447-1.923l76.605.352a1.736 1.736 0 0 1 1.426 1.933l-.072 20.019c0 1.064-.662 1.922-1.457 1.912"/><path fill="#e8e8e3" d="M222.544 300.124q-.634 0-1.219-.203-.577-.212-.895-.537l.236-.463q.301.292.805.496.513.195 1.073.195.537 0 .87-.13.342-.138.496-.366a.85.85 0 0 0 .163-.504.75.75 0 0 0-.195-.537 1.25 1.25 0 0 0-.496-.317 5 5 0 0 0-.683-.211q-.374-.09-.748-.187a3.4 3.4 0 0 1-.691-.277 1.5 1.5 0 0 1-.504-.447q-.188-.284-.188-.74 0-.423.22-.772.228-.358.691-.57.464-.219 1.187-.219.48 0 .952.138.471.13.813.366l-.203.48a2.917 2.917 0 0 0-1.57-.472q-.512 0-.845.138a1.1 1.1 0 0 0-.496.374.9.9 0 0 0-.155.521q0 .333.187.537.195.203.504.317.318.114.691.203.375.09.74.195.375.106.683.277.318.162.505.439.195.276.195.723 0 .415-.228.773-.228.35-.699.569-.464.211-1.196.211m3.434-.048v-5.692h.601v5.692zm2.453 0v-5.692h.496l3.928 4.944h-.26v-4.944h.593v5.692h-.496l-3.919-4.944h.26v4.944zm9.111.048q-.65 0-1.203-.211a3 3 0 0 1-.951-.61 2.8 2.8 0 0 1-.627-.919 3 3 0 0 1-.219-1.154q0-.627.219-1.155a2.8 2.8 0 0 1 1.586-1.521 3.2 3.2 0 0 1 1.203-.219q.651 0 1.188.203.545.204.927.618l-.374.382a2.14 2.14 0 0 0-.789-.512 2.7 2.7 0 0 0-.927-.154q-.53 0-.976.179-.44.17-.772.496-.326.316-.513.748a2.4 2.4 0 0 0-.179.935q0 .504.179.935.188.43.513.756.333.317.772.496.447.171.968.171.487 0 .919-.147a2.14 2.14 0 0 0 .805-.496l.341.456q-.406.357-.951.545a3.6 3.6 0 0 1-1.139.178m1.513-.796v-2.098h.577v2.171zm6.701.796q-1.089 0-1.716-.626-.626-.625-.626-1.854v-3.26h.602v3.236q0 1.008.455 1.488.456.48 1.285.48.838 0 1.293-.48.456-.48.455-1.488v-3.236h.586v3.26q0 1.229-.626 1.854-.618.626-1.708.626m4.147-.048v-5.692h2.13q.724 0 1.245.236.52.227.796.666.285.431.285 1.049 0 .602-.285 1.041-.276.431-.796.667t-1.245.236h-1.797l.269-.285v2.082zm.602-2.033-.269-.293h1.781q.853 0 1.293-.366.447-.374.447-1.049 0-.682-.447-1.057-.44-.374-1.293-.374h-1.781l.269-.284z"/><path fill="#4caf4f" d="m214.533 134.152-26.582-.121-.022 4.879 26.582.12z"/><path fill="#000" d="m214.533 134.152-26.582-.121-.022 4.879 26.582.12z" opacity=".1"/><path fill="#e0e0e0" d="M292.457 164.103q.315-.031.61-.144a1.63 1.63 0 0 0 1.033-1.396v-13.725a2 2 0 0 0-.289-1.354 1.55 1.55 0 0 0-1.23-.63h-16.547l-86.444-.321a1.38 1.38 0 0 0-1.137.569 1.98 1.98 0 0 0-.269 1.354v12.402a8.3 8.3 0 0 0 0 1.447 1.398 1.398 0 0 0 .807.93c.203.081.421.12.64.114h5.261l22.955.124 38.86.238 26.2.206 7.121.083h2.481-35.802l-38.86-.124-22.955-.093h-5.261a2.1 2.1 0 0 1-.847-.145 1.95 1.95 0 0 1-1.116-1.292 3 3 0 0 1-.062-.826v-13.168a6 6 0 0 1 0-.826c.038-.304.156-.593.341-.838a1.9 1.9 0 0 1 1.571-.795l86.444.475 14.934.103h1.613a1.76 1.76 0 0 1 1.447.755c.291.449.409.989.33 1.519v6.604c0 3.101-.072 5.478-.093 7.132a1.67 1.67 0 0 1-1.085 1.436 1.23 1.23 0 0 1-.651.186"/><path fill="#4caf4f" d="M244.553 151.722h-48.617v4.558h48.617z"/><path fill="#fff" d="M244.553 151.722h-48.617v4.558h48.617z" opacity=".2"/><path fill="#4caf4f" d="m214.352 178.654-26.582-.12-.022 4.878 26.582.12z"/><path fill="#000" d="m214.352 178.654-26.582-.12-.022 4.878 26.582.12z" opacity=".1"/><path fill="#e0e0e0" d="M291.785 208.607a5 5 0 0 0 .62-.114 2.123 2.123 0 0 0 1.303-1.178c.162-.417.226-.866.186-1.313v-12.329a2.23 2.23 0 0 0-.3-1.365 2 2 0 0 0-1.127-.878 6.3 6.3 0 0 0-1.56-.083h-14.873l-86.144-.32a1.914 1.914 0 0 0-1.891 1.664v12.402c-.039.483-.018.969.062 1.447.129.419.394.783.754 1.033.382.243.83.358 1.282.331h4.423l22.872.114 38.726.238 26.107.206 7.1.083h-33.207l-38.747-.041-22.872-.083h-4.495a2.6 2.6 0 0 1-1.582-.424 2.48 2.48 0 0 1-.971-1.354 6.5 6.5 0 0 1-.083-1.591v-12.403a2.45 2.45 0 0 1 2.429-2.139l86.144.475 14.873.114a6.4 6.4 0 0 1 1.653.114c.537.175.99.543 1.272 1.033.267.455.383.984.33 1.509v12.382c.038.462-.037.926-.217 1.354a2.18 2.18 0 0 1-1.395 1.178 1.9 1.9 0 0 1-.672-.062"/><path fill="#4caf4f" d="m214.152 225.089-26.582-.12-.022 4.878 26.582.12z"/><path fill="#000" d="m214.152 225.089-26.582-.12-.022 4.878 26.582.12z" opacity=".1"/><path fill="#e0e0e0" d="M291.578 255.023q.314-.038.621-.114a2.13 2.13 0 0 0 1.302-1.168c.162-.417.226-.866.186-1.312v-12.341a2.22 2.22 0 0 0-.3-1.364 2.07 2.07 0 0 0-1.126-.868 6.3 6.3 0 0 0-1.561-.093h-14.872l-86.145-.321a1.91 1.91 0 0 0-1.891 1.664v12.403c-.039.479-.018.962.062 1.436.124.422.39.787.754 1.034.38.248.83.364 1.282.33h4.496l22.872.125 38.726.237 26.107.207 7.1.083h-33.207l-38.726-.114-22.872-.093h-4.496a2.52 2.52 0 0 1-1.581-.424 2.48 2.48 0 0 1-.972-1.354 6.5 6.5 0 0 1-.083-1.591v-12.454a2.44 2.44 0 0 1 2.419-2.14l86.144.476 14.873.113a6.4 6.4 0 0 1 1.653.114c.537.175.99.544 1.272 1.034.267.455.383.983.33 1.509v12.381c.04.462-.035.927-.217 1.354a2.18 2.18 0 0 1-1.395 1.178 1.64 1.64 0 0 1-.755.073"/><path fill="#4caf4f" d="m243.515 197.514-48.616-.221-.021 4.558 48.617.221z"/><path fill="#fff" d="m243.515 197.514-48.616-.221-.021 4.558 48.617.221z" opacity=".2"/><path fill="#4caf4f" d="M199.295 246.589a2.13 2.13 0 0 1-2.654 1.906 2.13 2.13 0 0 1-.595-3.869 2.13 2.13 0 0 1 1.182-.321 2.193 2.193 0 0 1 2.067 2.284M205.878 246.62c.021.291-.019.584-.117.859a2.1 2.1 0 0 1-.449.741 2.13 2.13 0 0 1-3.681-1.6 2.1 2.1 0 0 1 .117-.859 2.129 2.129 0 0 1 4.13.859M212.472 246.651a2.13 2.13 0 0 1-1.431 1.858 2.13 2.13 0 0 1-2.271-.585 2.133 2.133 0 0 1 .454-3.236 2.12 2.12 0 0 1 1.181-.321 2.2 2.2 0 0 1 2.067 2.284M219.056 246.682a2.13 2.13 0 0 1-2.654 1.906 2.13 2.13 0 0 1-1.404-2.951 2.13 2.13 0 0 1 1.991-1.239 2.2 2.2 0 0 1 2.067 2.284M225.64 246.703a2.131 2.131 0 0 1-3.7 1.286 2.128 2.128 0 0 1 1.632-3.56 2.2 2.2 0 0 1 2.068 2.274M232.233 246.734a2.127 2.127 0 0 1-3.681 1.307 2.132 2.132 0 0 1 .394-3.235 2.13 2.13 0 0 1 1.169-.346 2.204 2.204 0 0 1 2.118 2.274M238.817 246.765a2.136 2.136 0 0 1-1.275 2.101 2.14 2.14 0 0 1-1.698 0 2.13 2.13 0 0 1-1.275-2.101 2.14 2.14 0 0 1 .567-1.601 2.13 2.13 0 0 1 2.406-.5 2.13 2.13 0 0 1 1.275 2.101M245.401 246.796a2.14 2.14 0 0 1-1.412 1.862 2.13 2.13 0 0 1-2.27-.555 2.132 2.132 0 0 1 .394-3.235 2.13 2.13 0 0 1 1.169-.346 2.204 2.204 0 0 1 2.119 2.274M251.984 246.827a2.13 2.13 0 1 1-2.067-2.274 2.2 2.2 0 0 1 2.067 2.274"/><g fill="#fff" opacity=".2"><path d="M199.295 246.589a2.13 2.13 0 0 1-2.654 1.906 2.13 2.13 0 0 1-.595-3.869 2.13 2.13 0 0 1 1.182-.321 2.193 2.193 0 0 1 2.067 2.284M205.878 246.62c.021.291-.019.584-.117.859a2.1 2.1 0 0 1-.449.741 2.13 2.13 0 0 1-3.681-1.6 2.1 2.1 0 0 1 .117-.859 2.129 2.129 0 0 1 4.13.859M212.472 246.651a2.13 2.13 0 0 1-1.431 1.858 2.13 2.13 0 0 1-2.271-.585 2.133 2.133 0 0 1 .454-3.236 2.12 2.12 0 0 1 1.181-.321 2.2 2.2 0 0 1 2.067 2.284M219.056 246.682a2.13 2.13 0 0 1-2.654 1.906 2.13 2.13 0 0 1-1.404-2.951 2.13 2.13 0 0 1 1.991-1.239 2.2 2.2 0 0 1 2.067 2.284M225.64 246.703a2.131 2.131 0 0 1-3.7 1.286 2.128 2.128 0 0 1 1.632-3.56 2.2 2.2 0 0 1 2.068 2.274M232.233 246.734a2.13 2.13 0 0 1-.427 1.142 2.13 2.13 0 0 1-2.202.781 2.126 2.126 0 0 1-1.446-2.92 2.13 2.13 0 0 1 1.957-1.277 2.204 2.204 0 0 1 2.118 2.274M238.817 246.765a2.136 2.136 0 0 1-1.275 2.101 2.14 2.14 0 0 1-1.698 0 2.13 2.13 0 0 1-1.275-2.101 2.14 2.14 0 0 1 .567-1.601 2.13 2.13 0 0 1 2.406-.5 2.13 2.13 0 0 1 1.275 2.101M245.401 246.796a2.14 2.14 0 0 1-1.412 1.862 2.13 2.13 0 0 1-2.27-.555 2.132 2.132 0 0 1 .394-3.235 2.13 2.13 0 0 1 1.169-.346 2.204 2.204 0 0 1 2.119 2.274M251.984 246.827a2.13 2.13 0 1 1-2.067-2.274 2.2 2.2 0 0 1 2.067 2.274"/></g><path fill="#4caf4f" d="M242.631 97.627a4 4 0 0 0 2.387-3.71 3.75 3.75 0 0 0-1.028-2.787 3.75 3.75 0 0 0-2.729-1.173 3.765 3.765 0 0 0-3.757 3.96 4.015 4.015 0 0 0 2.398 3.751c-5.788.868-5.529 7.152-5.529 7.152l13.684.062s.32-6.397-5.426-7.255"/><path fill="#000" d="M242.631 97.627a4 4 0 0 0 2.387-3.71 3.75 3.75 0 0 0-1.028-2.787 3.75 3.75 0 0 0-2.729-1.173 3.765 3.765 0 0 0-3.757 3.96 4.015 4.015 0 0 0 2.398 3.751c-5.788.868-5.529 7.152-5.529 7.152l13.684.062s.32-6.397-5.426-7.255" opacity=".1"/><path fill="#4caf4f" d="m264.867 108.935-48.772-.221-.027 5.829 48.772.221z"/><path fill="#fff" d="m264.867 108.935-48.772-.221-.027 5.829 48.772.221z" opacity=".2"/><path fill="#4caf4f" d="M85.566 139.144h-.486l-1.406.103a16 16 0 0 0-2.263.3q-.726.102-1.437.279l-1.602.444a26.3 26.3 0 0 0-7.617 3.773 26.8 26.8 0 0 0-7.503 8.35 28 28 0 0 0-2.625 6.005 29 29 0 0 0-1.148 7.008 28 28 0 0 0 .063 3.741c0 .63.175 1.261.258 1.902q.104.97.362 1.912a27.28 27.28 0 0 0 15.503 18.944 24.6 24.6 0 0 0 8.877 1.995c3.159.174 6.32-.28 9.302-1.333l.91-.341h.124l.103.062 13.033 6.614-.383.331c-1.395-4.32-2.738-8.506-4.041-12.526v-.155l.114-.114a27.9 27.9 0 0 0 6.842-11.369 28.6 28.6 0 0 0 1.034-12.113 28.3 28.3 0 0 0-3.421-10.273 27.9 27.9 0 0 0-5.892-7.235 28.8 28.8 0 0 0-6.397-4.072 28 28 0 0 0-5.416-1.705l-2.067-.341-1.498-.114-.91-.062h-.31q.155-.017.31 0h.92l1.498.062 2.068.3c1.881.354 3.72.905 5.488 1.643a28.7 28.7 0 0 1 6.511 4.062 28 28 0 0 1 6.015 7.234 28.4 28.4 0 0 1 3.524 10.408c.571 4.128.243 8.33-.961 12.32a28.3 28.3 0 0 1-6.945 11.606l.062-.268c1.302 4.02 2.656 8.206 4.062 12.516l.196.63-.589-.3-13.033-6.604h.227l-.93.341a24.7 24.7 0 0 1-9.477 1.364 25.1 25.1 0 0 1-9.064-2.067 27.2 27.2 0 0 1-12.95-11.586 27.6 27.6 0 0 1-2.925-7.648 16 16 0 0 1-.362-1.953c-.083-.651-.217-1.292-.248-1.933a30.5 30.5 0 0 1 1.147-10.914 27.8 27.8 0 0 1 2.698-6.077 27 27 0 0 1 7.658-8.402 26.1 26.1 0 0 1 7.741-3.742l1.623-.413q.716-.166 1.447-.259a15.5 15.5 0 0 1 2.284-.248l1.416-.051q.24-.033.486-.031"/><path fill="#4caf4f" d="M91.457 163.245h-1.912l-4.134-5.808v-3.814s-2.956-.186-2.605 4.806c.352 4.992 0 3.721 0 3.721s-6.273 0-6.79.568c-.517.569-.548 6.625-.62 10.005a3.66 3.66 0 0 0 2.594 3.679q.33.091.672.093c1.57 0 9.56-1.271 9.56-1.271h3.297zM96.924 162.222l-1.178 13.064H92.48v-12.795zM135.878 428.18v-8.837l-15.844-.114-.135 13.364.982.072c4.372.279 22.242.693 25.177-.217 3.266-1.013-10.18-4.268-10.18-4.268"/><path fill="#263238" d="M146.43 431.621c0 .145-5.932.269-13.239.269s-13.24-.124-13.24-.269c0-.144 5.932-.268 13.24-.268s13.239.124 13.239.268M136.157 429.988c-.135-.072 0-.537.32-1.033.321-.496.755-.703.858-.6.103.104-.114.496-.424.92s-.62.786-.754.713M137.17 430.567c-.145 0-.073-.579.237-1.126.31-.548.724-.879.837-.796.114.082-.072.547-.361 1.033-.29.486-.579.941-.713.889"/><path fill="#263238" d="M124.726 431.58c-.062 0-.3-.186-.641-.579q-.626-.759-1.385-1.385a3.66 3.66 0 0 0-1.715-.754c-.486-.062-.796 0-.827-.062s.268-.279.837-.321a3.2 3.2 0 0 1 2.067.703c.548.447 1.01.99 1.364 1.602.238.455.362.755.3.796M136.208 428.324c.073.124-.196.434-.651.6-.454.165-.858.103-.878 0-.021-.104.3-.321.692-.465.393-.145.755-.259.837-.135M135.96 427.467c0 .155-.413.279-.951.289-.537.01-.961-.114-.95-.258.01-.145.434-.28.95-.29.517-.01.931.114.951.259"/><path fill="#4caf4f" d="M174.893 428.18v-8.837l-15.844-.114-.134 13.229.982.073c4.372.279 22.252.827 25.177-.083 3.265-1.013-10.181-4.268-10.181-4.268"/><path fill="#263238" d="M185.446 431.642c0 .145-5.923.269-13.24.269s-13.229-.124-13.229-.269 5.922-.269 13.229-.269 13.24.124 13.24.269M175.172 429.988c-.124-.072 0-.537.321-1.033.32-.496.754-.703.858-.6.103.104-.114.496-.424.92s-.62.786-.755.713M176.185 430.567c-.134 0-.072-.579.248-1.126.321-.548.724-.879.837-.796.114.082-.082.547-.372 1.033-.289.486-.568.941-.713.889"/><path fill="#263238" d="M163.742 431.58c-.062 0-.29-.186-.641-.579q-.626-.759-1.385-1.385a3.66 3.66 0 0 0-1.716-.754c-.475-.062-.796 0-.827-.062s.269-.279.838-.321a3.2 3.2 0 0 1 2.067.703 5.7 5.7 0 0 1 1.364 1.602c.238.455.362.755.3.796M175.224 428.324c.072.124-.196.434-.651.6s-.858.103-.879 0c-.02-.104.3-.321.693-.465s.754-.259.837-.135M174.997 427.467c0 .155-.414.279-.951.289-.538.01-.951-.114-.941-.258s.424-.28.941-.29.951.114.951.259"/><path fill="#ffbe9d" d="M233.267 165.767c-.414-.423-1.437-.217-1.437-.217a5.3 5.3 0 0 0 0-1.798c-.186-.579-1.488-.465-1.488-.465q-.09-.734 0-1.468a.531.531 0 0 0-.3-.527 4.8 4.8 0 0 0-1.943-.351c-.796-.569 2.429-5.085 3.628-6.532s.982-2.574-.083-2.574c-.734 0-4.496 4.341-5.653 5.798-1.158 1.458-4.227 5.509-4.331 2.274-.103-3.235-1.405-5.674-2.222-6.087-.816-.414-1.684.558-1.24 1.457.391 1.022.634 2.093.724 3.183.112.869.073 1.75-.114 2.605a31 31 0 0 1-1.395 4.671h-.083s-22.552 21.632-24.185 23.172c-1.457 1.385-30.768-1.643-36.648-2.263a39.3 39.3 0 0 0-6.036-.414c-2.553.114-3.008.476-5.55.507-6.421.071-12.827.634-19.162 1.684a15.885 15.885 0 0 0-12.464 10.811c-5.922 18.5-19.337 62.291-21.704 86.888a105 105 0 0 0-4.837 9.995c-1.664 4.527-1.261 4.682-.703 4.785 1.509.279 3.225-7.845 3.865-5.881s-3.255 9.684-1.674 9.912c2.067.289 3.71-8.269 3.907-8.951.196-.682 1.22-.465 1.033.176-.3.91-3.204 10.552-1.178 10.862 1.116.166 1.24-1.87 1.24-1.87s2.067-9.23 3.008-9.044-.062 5.633-.538 7.452c-.475 1.819.187 2.739 1.158 2.294.662-.31 2.243-5.839 2.677-7.637.434-1.799 1.519-6.78 2.976-3.897s3.669 4.558 4.579 4.6a1.03 1.03 0 0 0 .86-1.359 1 1 0 0 0-.354-.491 11.7 11.7 0 0 1-1.994-2.584 7.6 7.6 0 0 1-1.034-2.419 26.2 26.2 0 0 1-.723-5.229l-.166-1.034c2.315-11.462 8.982-45.103 18.604-66.59l3.948 8.123 1.716 6.016-10.522 25.972 44.876-.589-6.697-25.776 8.134-26.872c8.795.197 31.377.527 35.139-1.178 4.734-2.067 29.218-32.99 29.218-32.99a57 57 0 0 0 4.579-3.969s1.488-1.251.589-2.181"/><path fill="#4caf4f" d="M115.455 240.13c1.302-4.445 7.989-26.417 7.989-26.417s3.287 17.911 2.419 20.071a38 38 0 0 1-2.822 5.333c-7.586 11.544-6.594 17.322-6.594 17.322l45.837-1.396c.104-6.408-3.689-21.311-4.475-23.688s1.829-10.16 1.829-10.16 5.168-5.26 4.982-7.968a44 44 0 0 0-.899-7.235l27.905 1.034-.878-18.914-40.081-4.01c-1.395 3.938-14.014 2.005-14.014 2.005-13.622.455-14.47 2.956-20.133 7.359-5.664 4.403-15.038 42.188-15.038 42.188z"/><path fill="#263238" d="M142.554 235.654a9.6 9.6 0 0 1-2.408.124c-1.498 0-3.555-.103-5.819-.33a63 63 0 0 1-5.767-.838 10 10 0 0 1-2.346-.599c.808 0 1.615.077 2.408.227 1.468.186 3.504.445 5.757.672s4.3.383 5.777.486c.806.01 1.609.097 2.398.258M145.696 231.758c-.794.389-1.635.677-2.501.858a46 46 0 0 1-12.64 1.498 10.4 10.4 0 0 1-2.625-.248c.87-.11 1.748-.154 2.625-.134a75 75 0 0 0 6.315-.455 69 69 0 0 0 6.201-1.033c.861-.23 1.739-.393 2.625-.486M161.116 214.374c-.02.788-.128 1.571-.32 2.336-.269 1.436-.682 3.4-1.209 5.55s-1.034 4.134-1.488 5.478a10.4 10.4 0 0 1-.807 2.222c.058-.786.204-1.562.434-2.315.393-1.613.838-3.473 1.334-5.509s.971-3.897 1.364-5.509c.14-.776.372-1.532.692-2.253M115.941 237.494a48 48 0 0 1-7.059-1.643 49 49 0 0 1-6.925-2.171c2.39.376 4.749.925 7.059 1.644a48.5 48.5 0 0 1 6.925 2.17M164.217 205.765c-.39.067-.788.067-1.178 0a12.3 12.3 0 0 1-3.152-.755 12.94 12.94 0 0 1-7.483-7.348 13.36 13.36 0 0 1-.92-5.819 9.04 9.04 0 0 1 1.416-4.609 4.78 4.78 0 0 1 2.615-1.933q.43-.118.878-.114h.31s-.434 0-1.126.279a4.7 4.7 0 0 0-2.367 1.933c-1.406 2.212-1.798 6.253-.3 10.025a12.64 12.64 0 0 0 3.194 4.672 13.6 13.6 0 0 0 3.917 2.522c1.352.534 2.76.919 4.196 1.147M188.309 206.654a86 86 0 0 1-.249-9.53c-.08-3.175.016-6.353.29-9.518.259 3.166.341 6.343.248 9.518.087 3.18-.01 6.361-.289 9.53"/><path fill="#ffbe9d" d="M150.399 185.26c.113-2.305.351-4.91.351-4.91s5.705-.63 6.046-6.521 0-19.482 0-19.482l-10.335-5.292-11.472 9.023 1.767 29.455 10.521.672a3.04 3.04 0 0 0 3.122-2.945"/><path fill="#eb996e" d="M151.422 169.168s0 .113-.093.248a.77.77 0 0 1-.651.289c-.662 0-1.302-.765-1.53-1.654a2.7 2.7 0 0 1 0-1.312 1.138 1.138 0 0 1 .62-.889.57.57 0 0 1 .434 0 .53.53 0 0 1 .238.238c.072.175 0 .289 0 .279 0-.011 0-.104-.103-.207a.371.371 0 0 0-.486-.103.87.87 0 0 0-.424.733 2.65 2.65 0 0 0 0 1.168c.207.807.765 1.458 1.261 1.52a.7.7 0 0 0 .548-.155c.124-.083.165-.166.186-.155"/><path fill="#263238" d="M160.341 151.164c-.796-2.708-3.679-4.052-6.304-4.796-4-1.137-8.32-1.633-12.227-.196-3.907 1.436-8.599 3.958-8.599 8.268-2.305-.186-3.627 1.829-4.537 4.33a16.3 16.3 0 0 0-1.034 4.755c-.289 5.643-1.87 13.435-5.529 17.57-2.067 2.304-4.93 3.896-6.108 6.769-1.034 2.491-.496 5.447-1.457 7.969-.858 2.222-2.749 3.803-4.134 5.736a15.37 15.37 0 0 0-2.413 7.309 15.37 15.37 0 0 0 1.431 7.563 18.83 18.83 0 0 0 11.255 9.715 26.32 26.32 0 0 0 14.831.145 24.8 24.8 0 0 0 9.942-4.93 16.6 16.6 0 0 0 5.768-9.55c.733-4.217-.445-8.506-1.323-12.702-2.75-13.26-1.964-13.952 1.509-26.262.082-.217.124-.444.186-.661s.093-.321.134-.486q.149-.73.155-1.478a2.84 2.84 0 0 1-2.987-.641 3.1 3.1 0 0 1-.703-3.1 4.52 4.52 0 0 1 2.667-2.512c1.147-.475 2.377-.723 3.503-1.25 2.388-1.137 4.042-3.494 5.168-5.964a8.18 8.18 0 0 0 .806-5.601"/><path fill="#4caf4f" d="M151.835 169.447c.219.322.399.669.538 1.033.31.651.723 1.571 1.178 2.636l.083.196h-.217l-1.034.093c-.713 0-1.312.134-2.015.124a.376.376 0 0 1-.269-.238.46.46 0 0 1 0-.289q.036-.209.093-.413l.186-.734a7 7 0 0 1 .434-1.426 7 7 0 0 1-.217 1.477l-.145.734c-.051.248-.144.631 0 .6.517 0 1.251-.114 1.933-.155l1.034-.093-.135.227a33 33 0 0 1-1.033-2.677 4 4 0 0 1-.414-1.095"/><path fill="#263238" d="m116.447 256.439 45.837-1.396 19.947 77.866-3.669 89.318h-24.236l2.966-87.416-17.725-54.209 2.729 145.087-24.495.362-2.573-136.374c-.114-3.793-1.354-12.341-.889-16.103z"/><path fill="#455a64" d="M145.665 281.708a9.2 9.2 0 0 1-2.243-.134 73 73 0 0 1-5.353-.868 69 69 0 0 1-5.282-1.271 8.5 8.5 0 0 1-2.067-.745c0-.155 3.37.652 7.504 1.489s7.462 1.374 7.441 1.529M178.314 417.328c0 .144-5.488.268-12.257.268-6.77 0-12.268-.124-12.268-.268s5.488-.269 12.268-.269 12.257.114 12.257.269M142.079 421.916c0 .155-5.333.269-11.906.269s-11.896-.114-11.896-.269 5.333-.268 11.896-.268 11.906.124 11.906.268"/><path fill="#455a64" d="M138.916 421.544c-.144 0-.785-31.698-1.436-70.796s-1.034-70.817-.9-70.817c.135 0 .796 31.688 1.437 70.807s1.054 70.806.899 70.806M175.059 417.328a2.5 2.5 0 0 1 0-.424v-1.24c0-1.117.082-2.718.144-4.755.145-4.134.352-10.138.61-17.497.558-14.8 1.344-35.202 2.202-57.723v-.609.072c-5.426-21.704-10.336-41.403-13.901-55.655l-4.134-16.857c-.476-1.974-.838-3.514-1.096-4.589-.124-.507-.207-.899-.279-1.199a1.8 1.8 0 0 1-.072-.413q.08.195.124.403c.082.289.186.682.33 1.178.279 1.033.682 2.604 1.199 4.568 1.034 3.989 2.491 9.736 4.31 16.816 3.597 14.242 8.558 33.889 14.056 55.624v.682c-.92 22.521-1.757 42.912-2.367 57.712-.32 7.369-.589 13.333-.775 17.487-.103 2.068-.186 3.638-.238 4.755 0 .527-.062.94-.072 1.24q.003.213-.041.424"/><path fill="#455a64" d="M167.152 333.261c-1.741.572-3.534.97-5.353 1.188-2.233.383-4.135.651-4.992.693v-.207c.279.083.423.134.423.176s-.175 0-.465 0h-.62l.62-.186c.806-.238 2.708-.631 4.941-1.034 1.79-.388 3.614-.6 5.446-.63M166.728 336.227a26.7 26.7 0 0 1-4.826-.217 27.3 27.3 0 0 1-4.806-.527 30.6 30.6 0 0 1 9.632.744"/><path fill="#000" d="M116.251 258.082a6.3 6.3 0 0 0 4.527 2.408 20.4 20.4 0 0 0 5.55-.103c11.834-1.313 24.37-2.522 35.956-5.344-14.996.837-30.84.558-45.837 1.396l-.155 1.281M131.702 279.217l8.455 32.805-.59-31.42z" opacity=".2"/></svg>