<svg xmlns="http://www.w3.org/2000/svg" fill="none" viewBox="0 0 48 48"><path fill="#4caf4f" stroke="#4caf4f" d="M16.5 8.736A11.502 11.502 0 0 1 27.61 23.202a11.5 11.5 0 0 1-3.708 5.834l-.607.511.722.328a18.27 18.27 0 0 1 7.41 6.131l.007.01.008.01a1.751 1.751 0 1 1-2.858 2.013l-.006-.01-.007-.01-.26-.36a14.75 14.75 0 0 0-23.883.36l-.001.001a1.73 1.73 0 0 1-1.426.742h-.004a1.7 1.7 0 0 1-1.001-.319l-.002-.001-.137-.107a1.75 1.75 0 0 1-.287-2.33 18.27 18.27 0 0 1 7.41-6.13l.723-.328-.607-.511a11.5 11.5 0 0 1 7.403-20.3Zm12.165.447.01-.002a11.3 11.3 0 0 1 3.105-.431h.003a11.481 11.481 0 0 1 7.402 20.286l-.61.51.725.329a18.27 18.27 0 0 1 7.41 6.131l.002.003a1.733 1.733 0 0 1-.422 2.43l-.006.004c-.292.209-.642.32-1 .318a1.77 1.77 0 0 1-1.3-.58l-.133-.164a14.79 14.79 0 0 0-12.069-6.267 1.75 1.75 0 1 1 0-3.5 8 8 0 1 0 0-16 7.8 7.8 0 0 0-2.163.3l-.006.002a1.75 1.75 0 0 1-2.184-1.203 1.75 1.75 0 0 1 1.236-2.166Zm-10.605 3.22a8 8 0 1 0-3.121 15.693 8 8 0 0 0 3.121-15.692Z"/></svg>