<svg xmlns="http://www.w3.org/2000/svg" fill="none" viewBox="0 0 391 407"><path fill="#e0e0e0" d="M336.293 393.032c30.214 0 54.707-14.138 54.707-31.578s-24.493-31.577-54.707-31.577-54.707 14.138-54.707 31.577c0 17.44 24.493 31.578 54.707 31.578M148.296 406.959a3.92 3.92 0 0 1-3.801-3.139l-.884-4.653a50 50 0 0 1-5.905-1.453h-.152l-8.192 3.8a4.83 4.83 0 0 1-4.227-.193l-8.131-4.715a3.22 3.22 0 0 1-1.698-2.686 3.23 3.23 0 0 1 1.424-2.841l4.939-3.556a18 18 0 0 1-1.23-1.869l-10.407-.65a3.73 3.73 0 0 1-3.496-3.709v-6.096a3.73 3.73 0 0 1 3.486-3.719l10.407-.66q.557-.969 1.23-1.859l-4.96-3.526a3.23 3.23 0 0 1-1.424-2.841 3.235 3.235 0 0 1 1.699-2.686l8.13-4.714a4.65 4.65 0 0 1 2.317-.589 4.5 4.5 0 0 1 1.911.396l8.201 3.8h.102a51 51 0 0 1 5.976-1.463l.884-4.654a3.91 3.91 0 0 1 3.801-3.139h12.002a3.926 3.926 0 0 1 3.801 3.139l.885 4.654c1.991.366 3.959.847 5.894 1.442h.153l8.201-3.799a4.5 4.5 0 0 1 1.901-.397 4.65 4.65 0 0 1 2.327.59l8.13 4.714a3.242 3.242 0 0 1 .285 5.527l-4.95 3.556q.675.894 1.24 1.859l10.407.661a3.73 3.73 0 0 1 3.486 3.718v6.096a3.737 3.737 0 0 1-3.486 3.719l-10.407.65a18 18 0 0 1-1.24 1.87l4.95 3.556a3.24 3.24 0 0 1-.285 5.527l-8.13 4.714a4.77 4.77 0 0 1-2.327.589 4.7 4.7 0 0 1-1.901-.396l-8.201-3.8h-.102a51 51 0 0 1-5.966 1.473l-.884 4.643a3.92 3.92 0 0 1-3.801 3.15zm6.006-34.219a25.35 25.35 0 0 0-12.47 2.947c-2.794 1.615-4.4 3.678-4.4 5.679s1.606 4.064 4.4 5.68a27.9 27.9 0 0 0 24.95 0c2.795-1.616 4.391-3.678 4.391-5.68s-1.596-4.064-4.391-5.679a25.4 25.4 0 0 0-12.48-2.947M193.213 233.065l-3.404-1.96a9.23 9.23 0 0 0-8.354 0L1.723 334.889c-2.297 1.321-2.297 3.495 0 4.816l3.394 1.961a9.26 9.26 0 0 0 8.364 0l54.596-31.496L90.2 322.931c6.26 3.617 16.515 3.617 22.776 0l37.664-21.743c5.345-3.048 5.345-8.128 0-11.176l-23.772-13.827 66.354-38.294c2.287-1.331 2.287-3.495-.01-4.826"/><path fill="#103e13" d="M200.175 57.073 37.567 150.921V242.9a2.65 2.65 0 0 0 .427 1.504 1.134 1.134 0 0 0 .925.549c.233-.005.461-.072.66-.193l164.468-95.007V59.329c0-2.5-1.738-3.495-3.872-2.256" opacity=".1"/><path fill="#37474f" d="m116.381 317.526 31.16-18.004c3.211-1.859 4.817-4.287 4.817-6.716v-4.338l-29.33-16.632a6.88 6.88 0 0 1-3.1-5.375v-38.405l-54.402 31.446v38.405a6.84 6.84 0 0 0 3.049 5.364l24.492 14.224c6.474 3.739 16.891 3.739 23.314.031"/><path fill="#263238" d="M78.585 304.704v4.318l-9.97-5.751a6.87 6.87 0 0 1-3.1-5.374v-38.395l10.367-5.985c.223 2.632.447 5.355.67 8.007l-7.276 4.206v30.002a6.82 6.82 0 0 0 3.049 5.375z"/><path fill="#455a64" d="M69.276 295.743a6.87 6.87 0 0 0 3.049 5.374l20.732 12.081c6.433 3.708 16.85 3.708 23.273 0l31.17-18.004c6.433-3.708 6.433-9.723 0-13.432l-20.753-12.09a6.83 6.83 0 0 1-3.099-5.375v-29.992L69.276 265.73z"/><path fill="#103e13" d="m133.12 273.319-6.312-3.647a6.83 6.83 0 0 1-3.099-5.375v-29.992L69.276 265.73v30.013a6.87 6.87 0 0 0 3.049 5.374l6.21 3.577z" opacity=".15"/><path fill="#37474f" d="M4.436 319.426a8.32 8.32 0 0 0 7.52-.143c26.76-15.443 152.313-87.914 179.072-103.348a8.6 8.6 0 0 0 3.872-6.715V59.308a7.27 7.27 0 0 0-3.641-6.6 7.28 7.28 0 0 0-7.538.169L4.68 156.225a8.59 8.59 0 0 0-3.832 6.716v149.911a8.33 8.33 0 0 0 3.588 6.574"/><path fill="#455a64" d="m11.957 319.283 179.071-103.358a8.57 8.57 0 0 0 3.872-6.716V59.308c0-2.479-1.738-3.475-3.872-2.235L11.957 160.42a8.56 8.56 0 0 0-3.872 6.716v149.911c-.01 2.469 1.727 3.465 3.872 2.235"/><path fill="#4caf4f" d="M13.207 298.963V168.915a5.27 5.27 0 0 1 2.378-4.125L187.39 65.628c1.311-.762 2.378-.142 2.378 1.371v130.049a5.28 5.28 0 0 1-2.388 4.135L15.585 300.345c-1.311.752-2.378.142-2.378-1.382"/><path fill="#fff" d="M13.207 298.963V168.915a5.27 5.27 0 0 1 2.378-4.125L187.39 65.628c1.311-.762 2.378-.142 2.378 1.371v130.049a5.28 5.28 0 0 1-2.388 4.135L15.585 300.345c-1.311.752-2.378.142-2.378-1.382" opacity=".75"/><path fill="#263238" d="m1.946 159.12 7.277 4.196a8.2 8.2 0 0 0-1.149 3.831v149.901c0 2.256 1.535 3.515 3.883 2.235a8.234 8.234 0 0 1-7.52.143 7.49 7.49 0 0 1-3.64-6.097V162.961a8 8 0 0 1 1.15-3.841"/><path fill="#4caf4f" d="m93.575 261.838 15.824-9.144c.793-.447 1.423-.132 1.423.722a3.05 3.05 0 0 1-1.423 2.357l-15.824 9.144c-.782.457-1.422.132-1.422-.711a3.05 3.05 0 0 1 1.422-2.368"/><path fill="#f5f7fa" d="M35.332 240.401c.234-.007.462-.078.66-.203l174.072-100.585a5.51 5.51 0 0 0 2.469-4.257V3.866c0-.926-.386-1.474-1.016-1.474-.36.01-.711.115-1.016.305L36.419 103.24a5.53 5.53 0 0 0-2.47 4.268v130.8c-.01.533.14 1.056.427 1.504a1.177 1.177 0 0 0 .955.589"/><path fill="#f5f7fa" d="M31.216 238.694c.294.153 2.388 1.341 3.303 1.87a2.74 2.74 0 0 1-1.017-2.266V116.276l-3.445-2.032v122.093a2.63 2.63 0 0 0 1.159 2.357"/><path fill="#e0e0e0" d="M211.497 2.849c.508 0 .579.63.579 1.016v131.481a5.1 5.1 0 0 1-.669 2.195 5.1 5.1 0 0 1-1.567 1.676L35.769 239.801a.9.9 0 0 1-.437.133c-.478 0-.895-.742-.895-1.596V107.477a5.01 5.01 0 0 1 2.236-3.871L210.744 3.093c.225-.146.485-.23.753-.244m0-.904c-.426.011-.84.137-1.2.365L36.216 102.814a5.95 5.95 0 0 0-2.683 4.663v130.831c0 1.351.752 2.509 1.799 2.509.316-.006.625-.097.894-.264l174.061-100.584a5.92 5.92 0 0 0 2.704-4.653V3.865c0-1.22-.61-1.92-1.494-1.92"/><path fill="#4caf4f" d="M212.981 3.804v9.012L33.534 116.448l-3.446-2.032v-8.859a5.6 5.6 0 0 1 .813-2.693 5.45 5.45 0 0 1 1.88-1.96L206.854.36a1.91 1.91 0 0 1 1.961-.163c.498.305 2.856 1.646 3.334 1.89a.7.7 0 0 1 .203.142q.122.09.213.214.105.125.173.274.094.151.132.325.058.179.082.366.032.196.03.396"/><path fill="#103e13" d="M212.981 3.804v9.012L33.534 116.448l-3.446-2.032v-8.859a5.6 5.6 0 0 1 .813-2.693 5.45 5.45 0 0 1 1.88-1.96L206.854.36a1.91 1.91 0 0 1 1.961-.163c.498.305 2.856 1.646 3.334 1.89a.7.7 0 0 1 .203.142q.122.09.213.214.105.125.173.274.094.151.132.325.058.179.082.366.032.196.03.396" opacity=".15"/><path fill="#4caf4f" d="M212.98 3.804v9.012L33.533 116.448v-8.9a4.8 4.8 0 0 1 .325-1.676 2 2 0 0 1 .112-.274q.157-.379.366-.732a5.4 5.4 0 0 1 1.89-1.981L210.287 2.31a1.79 1.79 0 0 1 2.033-.08q.122.09.213.213.104.125.173.274.094.151.132.325.059.179.081.366.049.195.061.396"/><path fill="#f5f7fa" d="M194.961 14.604a4.45 4.45 0 0 0-1.676 3.556c0 1.433.752 2.154 1.676 1.616a4.44 4.44 0 0 0 1.677-3.556c-.051-1.372-.803-2.154-1.677-1.616M200.958 11.11a4.42 4.42 0 0 0-1.677 3.555c0 1.422.752 2.154 1.677 1.616a4.44 4.44 0 0 0 1.687-3.556c0-1.433-.752-2.154-1.687-1.616M207.015 7.604a4.43 4.43 0 0 0-1.687 3.556c0 1.432.752 2.154 1.687 1.626a4.45 4.45 0 0 0 1.676-3.556c0-1.433-.752-2.154-1.676-1.626"/><path fill="#4caf4f" d="M210.297 2.31 36.226 102.814a5.55 5.55 0 0 0-1.9 2.032l-3.415-2.032a5.3 5.3 0 0 1 1.87-1.971L206.852.36a1.91 1.91 0 0 1 1.962-.163c.477.295 2.713 1.565 3.282 1.87a1.96 1.96 0 0 0-1.799.243"/><path fill="#fff" d="M210.297 2.31 36.226 102.814a5.55 5.55 0 0 0-1.9 2.032l-3.415-2.032a5.3 5.3 0 0 1 1.87-1.971L206.852.36a1.91 1.91 0 0 1 1.962-.163c.477.295 2.713 1.565 3.282 1.87a1.96 1.96 0 0 0-1.799.243" opacity=".5"/><path fill="#455a64" d="M77.07 120.756a.24.24 0 0 1-.243-.244v-10.251a.243.243 0 0 1 .336-.225q.044.018.077.053a.24.24 0 0 1 .065.172v10.251a.24.24 0 0 1-.142.226.2.2 0 0 1-.092.018"/><path fill="#455a64" d="m76.207 119.547.823.823.813-.823v.701l-.813.813-.823-.813zM85.74 121.874a.226.226 0 0 1-.213-.122.23.23 0 0 1-.024-.182.23.23 0 0 1 .115-.143l6.748-3.901a.3.3 0 0 1 .091-.032.252.252 0 0 1 .182.05q.039.03.063.073a.244.244 0 0 1-.092.325l-6.758 3.902a.2.2 0 0 1-.112.03"/><path fill="#455a64" d="m92.061 118.928.305-1.118-1.118-.305.6-.345 1.118.294-.295 1.118zM84.49 175.732a.2.2 0 0 1-.125-.029.22.22 0 0 1-.088-.093.23.23 0 0 1 .019-.265.2.2 0 0 1 .072-.06l6.748-3.901a.255.255 0 0 1 .335.091.265.265 0 0 1-.09.336l-6.76 3.891a.2.2 0 0 1-.111.03"/><path fill="#455a64" d="m90.811 172.786.305-1.118-1.118-.294.6-.356 1.118.305-.295 1.117zM108.993 161.59a.227.227 0 0 1-.203-.122.22.22 0 0 1 .091-.325l6.748-3.902a.22.22 0 0 1 .184-.028.21.21 0 0 1 .141.119.2.2 0 0 1 .033.088.24.24 0 0 1-.114.238l-6.758 3.901a.25.25 0 0 1-.122.031"/><path fill="#455a64" d="m115.324 158.643.305-1.118-1.118-.304.6-.346 1.118.295-.305 1.117zM110.609 107.538a.2.2 0 0 1-.119-.032.2.2 0 0 1-.084-.09.23.23 0 0 1-.029-.179.3.3 0 0 1 .04-.084.24.24 0 0 1 .07-.062l6.758-3.901a.24.24 0 0 1 .182-.024.228.228 0 0 1 .143.115.23.23 0 0 1-.081.325l-6.758 3.902a.3.3 0 0 1-.122.03"/><path fill="#455a64" d="m116.9 104.592.304-1.118-1.117-.305.599-.345 1.118.294-.305 1.128zM110.131 134.625a.24.24 0 0 1-.213-.112.2.2 0 0 1-.031-.091.24.24 0 0 1 .122-.244l6.748-3.902a.24.24 0 0 1 .187-.023.246.246 0 0 1 .057.45l-6.758 3.891a.2.2 0 0 1-.112.031"/><path fill="#455a64" d="m110.548 133.202-.295 1.118 1.118.295-.6.345-1.118-.295.295-1.117zM109.694 184.998a.2.2 0 0 1-.119-.032.2.2 0 0 1-.084-.09.2.2 0 0 1-.047-.097.2.2 0 0 1 .003-.107.23.23 0 0 1 .145-.151l6.302-3.648a.247.247 0 0 1 .357.179.24.24 0 0 1-.044.176.24.24 0 0 1-.07.062l-6.311 3.647a.3.3 0 0 1-.132.061"/><path fill="#455a64" d="m110.121 183.566-.305 1.117 1.118.305-.6.346-1.118-.305.305-1.118zM85.852 148.635a.23.23 0 0 1-.12-.031.23.23 0 0 1-.084-.09.235.235 0 0 1 .081-.326l6.76-3.901a.243.243 0 0 1 .306.364.24.24 0 0 1-.073.063l-6.748 3.891z"/><path fill="#455a64" d="m86.279 147.213-.305 1.118 1.118.294-.6.346-1.118-.295.305-1.118zM124.268 116.692a.244.244 0 0 1-.244-.243v-7.814a.244.244 0 0 1 .416-.172.24.24 0 0 1 .072.172v7.814a.244.244 0 0 1-.244.243"/><path fill="#455a64" d="m123.455 115.493.813.813.823-.813v.691l-.823.813-.813-.813zM77.071 166.619a.2.2 0 0 1-.122 0 .22.22 0 0 1-.122-.203v-5.751c0-.065.026-.127.072-.172a.24.24 0 0 1 .264-.053q.044.018.077.053a.24.24 0 0 1 .065.172v5.324l46.749-26.985v-3.577a.244.244 0 0 1 .488 0v3.719a.24.24 0 0 1-.122.203l-47.247 27.27a.2.2 0 0 1-.102 0"/><path fill="#455a64" d="m77.843 161.59-.813-.813-.823.813v-.691l.823-.823.813.823zM77.071 193.289a.2.2 0 0 1-.122 0 .225.225 0 0 1-.122-.213v-3.709c0-.065.026-.127.072-.172a.24.24 0 0 1 .264-.053.236.236 0 0 1 .142.225v3.282l46.749-26.985v-5.629a.244.244 0 1 1 .488 0v5.751a.24.24 0 0 1-.122.203l-47.278 27.269a.2.2 0 0 1-.071.031"/><path fill="#455a64" d="m125.091 160.99-.823-.813-.813.813v-.691l.813-.813.823.813zM66.217 186.278a.25.25 0 0 1-.122 0 .242.242 0 0 1-.122-.213V159.73a.24.24 0 0 1 .122-.203l2.561-1.483a.24.24 0 0 1 .285.061.244.244 0 0 1-.092.335l-2.429 1.402v25.746l2.683-1.545a.24.24 0 0 1 .095-.05.242.242 0 0 1 .292.324.25.25 0 0 1-.153.143l-3.049 1.758a.3.3 0 0 1-.071.06"/><path fill="#455a64" d="m68.839 185.476.295-1.118-1.118-.305.61-.345 1.107.305-.294 1.107zM133.425 171.313a.24.24 0 0 1-.12-.032.265.265 0 0 1-.115-.181.24.24 0 0 1 .123-.245l2.541-1.463v-23.266l-2.196 1.26a.24.24 0 0 1-.179.028.23.23 0 0 1-.146-.109.245.245 0 0 1 .081-.336l2.561-1.473a.257.257 0 0 1 .244 0 .24.24 0 0 1 .084.092q.03.057.028.121v23.816a.23.23 0 0 1-.029.116.22.22 0 0 1-.083.087l-2.672 1.585a.25.25 0 0 1-.122 0"/><path fill="#455a64" d="m133.851 169.87-.294 1.118 1.118.294-.61.356-1.118-.305.305-1.118z"/><path fill="#4caf4f" d="M84.317 99.694c0 2.733-3.262 6.828-7.287 9.144-4.024 2.317-7.297 2.032-7.297-.741s3.263-6.828 7.297-9.144c4.035-2.317 7.287-1.992 7.287.741M103.561 192.923c3.758-3.144 5.638-7.085 4.201-8.802s-5.649-.559-9.406 2.585-5.638 7.085-4.201 8.802 5.649.559 9.406-2.585M83.667 127.208l-13.283 7.661c-.397.223-.712 0-.712-.549v-6.838a1.72 1.72 0 0 1 .712-1.371l13.283-7.631c.396-.223.711 0 .711.549v6.828a1.73 1.73 0 0 1-.711 1.351"/><path fill="#fff" d="m83.667 127.208-13.283 7.661c-.397.223-.712 0-.712-.549v-6.838a1.72 1.72 0 0 1 .712-1.371l13.283-7.631c.396-.223.711 0 .711.549v6.828a1.73 1.73 0 0 1-.711 1.351" opacity=".6"/><path fill="#4caf4f" d="m107.56 113.4-13.212 7.651c-.396.233-.722 0-.722-.539v-6.837a1.71 1.71 0 0 1 .722-1.372l13.212-7.661c.396-.233.721 0 .721.539v6.838a1.71 1.71 0 0 1-.721 1.381"/><path fill="#fff" d="m107.56 113.4-13.212 7.651c-.396.233-.722 0-.722-.539v-6.837a1.71 1.71 0 0 1 .722-1.372l13.212-7.661c.396-.233.721 0 .721.539v6.838a1.71 1.71 0 0 1-.721 1.381" opacity=".6"/><path fill="#4caf4f" d="m107.56 140.223-13.212 7.661c-.396.233-.722 0-.722-.539v-6.838a1.73 1.73 0 0 1 .722-1.371l13.212-7.661c.396-.234.721 0 .721.539v6.837a1.72 1.72 0 0 1-.721 1.372"/><path fill="#fff" d="m107.56 140.223-13.212 7.661c-.396.233-.722 0-.722-.539v-6.838a1.73 1.73 0 0 1 .722-1.371l13.212-7.661c.396-.234.721 0 .721.539v6.837a1.72 1.72 0 0 1-.721 1.372" opacity=".6"/><path fill="#4caf4f" d="m107.56 166.538-13.212 7.66c-.396.224-.722 0-.722-.548v-6.838a1.73 1.73 0 0 1 .722-1.372l13.212-7.66c.396-.224.721 0 .721.548v6.828a1.737 1.737 0 0 1-.721 1.382"/><path fill="#fff" d="m107.56 166.538-13.212 7.66c-.396.224-.722 0-.722-.548v-6.838a1.73 1.73 0 0 1 .722-1.372l13.212-7.66c.396-.224.721 0 .721.548v6.828a1.737 1.737 0 0 1-.721 1.382" opacity=".6"/><path fill="#4caf4f" d="m130.935 153.075-13.273 7.661c-.396.234-.722 0-.722-.538v-6.838c.005-.269.073-.533.199-.771a1.7 1.7 0 0 1 .523-.601l13.273-7.66c.396-.234.721 0 .721.538v6.838a1.72 1.72 0 0 1-.721 1.371"/><path fill="#fff" d="m130.935 153.075-13.273 7.661c-.396.234-.722 0-.722-.538v-6.838c.005-.269.073-.533.199-.771a1.7 1.7 0 0 1 .523-.601l13.273-7.66c.396-.234.721 0 .721.538v6.838a1.72 1.72 0 0 1-.721 1.371" opacity=".6"/><path fill="#4caf4f" d="m130.935 176.891-13.304 7.63c-.396.233-.721 0-.721-.539v-6.837a1.71 1.71 0 0 1 .721-1.372l13.304-7.63c.396-.234.721 0 .721.538v6.838a1.73 1.73 0 0 1-.721 1.372"/><path fill="#fff" d="m130.935 176.891-13.304 7.63c-.396.233-.721 0-.721-.539v-6.837a1.71 1.71 0 0 1 .721-1.372l13.304-7.63c.396-.234.721 0 .721.538v6.838a1.73 1.73 0 0 1-.721 1.372" opacity=".6"/><path fill="#4caf4f" d="m83.667 154.041-13.283 7.66c-.397.234-.712 0-.712-.548v-6.828a1.74 1.74 0 0 1 .712-1.382l13.283-7.66c.396-.224.711 0 .711.548v6.838a1.72 1.72 0 0 1-.711 1.372"/><path fill="#fff" d="m83.667 154.041-13.283 7.66c-.397.234-.712 0-.712-.548v-6.828a1.74 1.74 0 0 1 .712-1.382l13.283-7.66c.396-.224.711 0 .711.548v6.838a1.72 1.72 0 0 1-.711 1.372" opacity=".6"/><path fill="#455a64" d="m123.597 106.563-5.61-7.834a2.15 2.15 0 0 1 .671-2.51l11.179-6.471c.711-.417 1.108.61.671 1.727l-5.61 14.316c-.295.873-.955 1.249-1.301.772"/><path fill="#c8e6c9" d="m129.979 123.977-5.203 8.971c-.305.519-.712.762-1.016.59l-5.204-2.967c-.457-.264-.457-1.311 0-2.103l5.204-8.961c.304-.519.711-.762 1.016-.59l5.203 2.967c.458.254.458 1.311 0 2.093M82.732 177.551l-5.194 9.002c-.304.518-.721.762-1.016.589l-5.203-2.967c-.458-.254-.458-1.31 0-2.103l5.203-8.961c.295-.518.712-.762 1.016-.589l5.194 2.966c.437.224.437 1.281 0 2.063"/><path fill="#455a64" d="M57.345 145.913a.27.27 0 0 1-.214-.112.255.255 0 0 1 .092-.336l15.671-9.042a.24.24 0 0 1 .184-.029.25.25 0 0 1 .151.11.255.255 0 0 1-.091.336l-15.671 9.073a.3.3 0 0 1-.122 0"/><path fill="#e0e0e0" d="M57.345 148.229a.25.25 0 0 1-.214-.122.244.244 0 0 1 .092-.325l15.671-9.053a.255.255 0 0 1 .335.092.244.244 0 0 1-.091.325l-15.671 9.053a.3.3 0 0 1-.122.03M57.345 150.505a.27.27 0 0 1-.214-.122.254.254 0 0 1 .092-.335l15.671-9.043a.245.245 0 0 1 .273.019.24.24 0 0 1 .082.254.25.25 0 0 1-.111.144l-15.671 9.052zM57.345 152.771a.3.3 0 0 1-.12-.03.3.3 0 0 1-.094-.082.255.255 0 0 1 .092-.335l15.671-9.043a.3.3 0 0 1 .09-.033.3.3 0 0 1 .095.004.25.25 0 0 1 .15.11.255.255 0 0 1-.091.336l-15.671 9.042a.3.3 0 0 1-.122.031"/><path fill="#455a64" d="M50.454 119.364a.23.23 0 0 1-.12-.031.22.22 0 0 1-.083-.091.24.24 0 0 1-.029-.184.248.248 0 0 1 .11-.151l15.682-9.042a.25.25 0 0 1 .163.005.25.25 0 0 1 .15.269.24.24 0 0 1-.08.142l-15.671 9.053a.3.3 0 0 1-.122.03"/><path fill="#e0e0e0" d="M50.454 121.63a.23.23 0 0 1-.116-.029.238.238 0 0 1-.116-.267.25.25 0 0 1 .11-.151l15.682-9.043a.24.24 0 0 1 .18-.028q.045.012.083.04a.24.24 0 0 1 .093.161.25.25 0 0 1-.05.181.24.24 0 0 1-.073.063L50.576 121.6a.3.3 0 0 1-.122.03M50.454 123.906a.222.222 0 0 1-.203-.122.235.235 0 0 1 .081-.325l15.682-9.043a.247.247 0 0 1 .325.092.23.23 0 0 1 .024.182.23.23 0 0 1-.116.143l-15.67 9.053a.3.3 0 0 1-.123.02M50.454 126.182a.24.24 0 0 1-.15-.05.242.242 0 0 1 .028-.407l15.682-9.043a.245.245 0 0 1 .182-.024q.045.014.083.043.038.03.06.073a.233.233 0 0 1-.092.325l-15.67 9.052z"/><path fill="#455a64" d="M93.118 125.034a.25.25 0 0 1-.15-.05.24.24 0 0 1-.078-.29.25.25 0 0 1 .106-.118l15.682-9.042a.3.3 0 0 1 .088-.031.235.235 0 0 1 .237.122.24.24 0 0 1 .024.182.232.232 0 0 1-.116.143l-15.67 9.043a.2.2 0 0 1-.123.041"/><path fill="#e0e0e0" d="M93.118 127.299a.23.23 0 0 1-.119-.031.23.23 0 0 1-.084-.091.23.23 0 0 1-.028-.179.23.23 0 0 1 .11-.146l15.681-9.052a.243.243 0 0 1 .234.426l-15.672 9.043zM93.118 129.575a.2.2 0 0 1-.119-.032.2.2 0 0 1-.084-.09.23.23 0 0 1-.028-.179.23.23 0 0 1 .11-.146l15.681-9.052a.242.242 0 0 1 .349.273.2.2 0 0 1-.043.084.3.3 0 0 1-.072.059l-15.672 9.053a.3.3 0 0 1-.122.03M93.118 131.851a.24.24 0 0 1-.24-.181.24.24 0 0 1 .118-.276l15.682-9.043a.24.24 0 0 1 .18-.028q.045.012.083.04a.24.24 0 0 1 .093.161.24.24 0 0 1-.05.181.2.2 0 0 1-.073.063l-15.67 9.042a.2.2 0 0 1-.123.041"/><path fill="#455a64" d="M115.792 86.172a.22.22 0 0 1-.203-.122.22.22 0 0 1 .091-.325l15.671-9.053a.244.244 0 0 1 .326.091.241.241 0 0 1 .028.18.239.239 0 0 1-.11.145l-15.681 9.053a.24.24 0 0 1-.122.03"/><path fill="#e0e0e0" d="M115.792 88.447a.24.24 0 0 1-.203-.121.243.243 0 0 1 .101-.326l15.672-9.042a.22.22 0 0 1 .183-.028.23.23 0 0 1 .142.12.241.241 0 0 1 .028.18.24.24 0 0 1-.11.145l-15.681 9.042a.17.17 0 0 1-.132.03M115.792 90.713a.22.22 0 0 1-.203-.122.24.24 0 0 1-.024-.182.233.233 0 0 1 .115-.143l15.671-9.042a.24.24 0 0 1 .18-.029.24.24 0 0 1 .146.11.26.26 0 0 1 .028.184.237.237 0 0 1-.11.15l-15.681 9.044a.24.24 0 0 1-.122.03M115.792 92.989a.22.22 0 0 1-.203-.122.22.22 0 0 1 .091-.325l15.671-9.053a.245.245 0 0 1 .326.092.24.24 0 0 1 .028.18.239.239 0 0 1-.11.145l-15.681 9.052a.25.25 0 0 1-.122.03"/><path fill="#455a64" d="M130.315 111.612a.22.22 0 0 1-.204-.122.218.218 0 0 1-.028-.183.23.23 0 0 1 .12-.142l15.671-9.052a.245.245 0 0 1 .359.278.24.24 0 0 1-.115.148l-15.681 9.043a.24.24 0 0 1-.122.03"/><path fill="#e0e0e0" d="M130.315 113.888a.23.23 0 0 1-.204-.122.24.24 0 0 1 .019-.273.3.3 0 0 1 .073-.062l15.671-9.043a.2.2 0 0 1 .089-.034.2.2 0 0 1 .095.006.24.24 0 0 1 .084.044.2.2 0 0 1 .057.076.23.23 0 0 1 .028.18.23.23 0 0 1-.109.145l-15.681 9.053a.25.25 0 0 1-.122.03M130.315 116.154a.23.23 0 0 1-.117-.029.25.25 0 0 1-.087-.083.24.24 0 0 1 .019-.273.3.3 0 0 1 .073-.062l15.671-9.043a.242.242 0 0 1 .18-.028.227.227 0 0 1 .145.11.23.23 0 0 1 .029.184.24.24 0 0 1-.11.151l-15.681 9.042a.24.24 0 0 1-.122.031M130.315 118.48a.22.22 0 0 1-.204-.122.218.218 0 0 1-.028-.183.23.23 0 0 1 .12-.142l15.671-9.052a.243.243 0 0 1 .325.091.23.23 0 0 1-.081.325l-15.681 9.053a.25.25 0 0 1-.122.03"/><path fill="#455a64" d="M130.315 134.208a.2.2 0 0 1-.119-.032.2.2 0 0 1-.085-.09.218.218 0 0 1-.028-.183.2.2 0 0 1 .045-.084.2.2 0 0 1 .075-.058l15.671-9.053a.25.25 0 0 1 .181-.019.24.24 0 0 1 .144.111.23.23 0 0 1 .028.18.23.23 0 0 1-.109.145l-15.681 9.053a.25.25 0 0 1-.122.03"/><path fill="#e0e0e0" d="M130.315 136.484a.247.247 0 0 1-.235-.213.24.24 0 0 1 .123-.244l15.671-9.043a.2.2 0 0 1 .089-.034.2.2 0 0 1 .095.006.24.24 0 0 1 .084.044.2.2 0 0 1 .057.076.23.23 0 0 1 .028.18.23.23 0 0 1-.109.145l-15.681 9.053a.25.25 0 0 1-.122.03M130.315 138.801a.24.24 0 0 1-.119-.032.24.24 0 0 1-.085-.09.24.24 0 0 1-.023-.182.233.233 0 0 1 .115-.144l15.671-9.042a.3.3 0 0 1 .087-.032.241.241 0 0 1 .177.044.2.2 0 0 1 .061.069.245.245 0 0 1-.081.336l-15.681 9.042a.25.25 0 0 1-.122.031M130.315 141.026a.23.23 0 0 1-.204-.122.2.2 0 0 1-.034-.089.228.228 0 0 1 .126-.236l15.671-9.053a.243.243 0 0 1 .325.091.2.2 0 0 1 .033.087.24.24 0 0 1-.044.177.24.24 0 0 1-.07.062l-15.681 9.052a.25.25 0 0 1-.122.031"/><path fill="#455a64" d="M56.572 197.251a.254.254 0 0 1-.213-.111.244.244 0 0 1 .091-.336l15.671-9.042a.24.24 0 0 1 .271.011.3.3 0 0 1 .065.07.255.255 0 0 1-.092.335l-15.62 9.043a.27.27 0 0 1-.173.03"/><path fill="#e0e0e0" d="M56.572 199.527a.25.25 0 0 1-.123-.032.24.24 0 0 1-.09-.09.23.23 0 0 1-.024-.182.23.23 0 0 1 .115-.143l15.671-9.053a.255.255 0 0 1 .336.092.244.244 0 0 1-.092.325l-15.62 9.053zM56.572 201.793a.262.262 0 0 1-.213-.122.244.244 0 0 1 .091-.335l15.671-9.043a.245.245 0 0 1 .273.019.24.24 0 0 1 .083.254.25.25 0 0 1-.112.144l-15.62 9.083a.3.3 0 0 1-.173 0M56.572 204.069a.25.25 0 0 1-.14-.054.24.24 0 0 1-.076-.276.24.24 0 0 1 .094-.117l15.672-9.043a.24.24 0 0 1 .184-.029.25.25 0 0 1 .15.11.254.254 0 0 1-.09.336l-15.621 9.042z"/><path fill="#455a64" d="M238.967 28.056v123.841a6.6 6.6 0 0 1-.87 2.933 6.56 6.56 0 0 1-2.108 2.218l-79.169 45.72a1.9 1.9 0 0 1-1.017.285 1.6 1.6 0 0 1-.376 0 1 1 0 0 1-.254-.092l-.162-.081-.173-.122a1 1 0 0 1-.163-.142 2.4 2.4 0 0 1-.548-.782 3.75 3.75 0 0 1-.315-1.504V77.099a6.6 6.6 0 0 1 2.977-5.151l79.17-45.63a2.16 2.16 0 0 1 2.032-.253q.134.065.254.152a2.1 2.1 0 0 1 .722 1.84"/><path fill="#455a64" d="M237.311 26.939a.54.54 0 0 1 .274.06h.051s.315.265.315 1.017v123.881a5.5 5.5 0 0 1-.733 2.424 5.5 5.5 0 0 1-1.737 1.843l-79.159 45.72c-.144.09-.308.143-.478.153h-.223l-.082-.061h-.061l-.051-.051a1.6 1.6 0 0 1-.304-.447 2.7 2.7 0 0 1-.224-1.087V77.099a5.64 5.64 0 0 1 2.47-4.267l79.169-45.63c.243-.157.524-.248.813-.263zm.04-1.016c-.467.014-.923.15-1.321.396l-79.17 45.629a6.595 6.595 0 0 0-2.977 5.151v123.14c0 .517.107 1.029.315 1.503.129.295.315.561.549.783q.074.078.162.142l.173.122.163.081q.12.062.254.091.188.022.376 0c.334-.013.659-.111.945-.284l79.169-45.72a6.55 6.55 0 0 0 2.978-5.151V28.056a2.1 2.1 0 0 0-.722-1.798 1.5 1.5 0 0 0-.934-.295z"/><path fill="#455a64" d="M238.967 28.056v123.841a6.6 6.6 0 0 1-.87 2.933 6.56 6.56 0 0 1-2.108 2.218l-79.169 45.72a1.9 1.9 0 0 1-1.017.285 1.6 1.6 0 0 1-.376 0 1 1 0 0 1-.254-.092l-.162-.081-.173-.122a1 1 0 0 1-.163-.142 2.4 2.4 0 0 1-.548-.782 3.75 3.75 0 0 1-.315-1.504V77.099a6.6 6.6 0 0 1 2.977-5.151l79.17-45.63a2.16 2.16 0 0 1 2.032-.253q.134.065.254.152a2.1 2.1 0 0 1 .722 1.84" opacity=".8"/><path fill="#4caf4f" d="M237.991 26.024a2.16 2.16 0 0 0-2.032.254l-79.17 45.629a6.6 6.6 0 0 0-2.977 5.151v9.723l-3.791-2.225v-9.652a6.53 6.53 0 0 1 2.967-5.14l79.18-45.63a2.03 2.03 0 0 1 2.155-.172c.569.355 3.038 1.778 3.668 2.062"/><path fill="#4caf4f" d="M238.967 28.056c0-1.88-1.342-2.631-2.978-1.687L156.82 72a6.57 6.57 0 0 0-2.968 5.14v9.724l85.115-49.084z"/><path fill="#fff" d="M235.989 26.319 156.82 71.948a6.2 6.2 0 0 0-2.094 2.214l-3.77-2.194a5.9 5.9 0 0 1 2.032-2.164l79.17-45.629a2.1 2.1 0 0 1 2.165-.183c.528.335 2.998 1.738 3.628 2.032a2.15 2.15 0 0 0-1.962.295" opacity=".4"/><path fill="#103e13" d="M150.041 84.607v-9.662a6.1 6.1 0 0 1 .915-2.977l3.78 2.184a6.04 6.04 0 0 0-.884 2.957v9.713z" opacity=".15"/><path fill="#455a64" d="M221.05 39.09a4.42 4.42 0 0 0-1.677 3.556c0 1.422.752 2.154 1.677 1.615a4.44 4.44 0 0 0 1.677-3.556c0-1.473-.752-2.154-1.677-1.615M227.097 35.585a4.45 4.45 0 0 0-1.677 3.556c0 1.432.752 2.154 1.677 1.625a4.43 4.43 0 0 0 1.687-3.556c0-1.432-.752-2.154-1.687-1.625M233.144 32.12a4.45 4.45 0 0 0-1.677 3.556c0 1.433.752 2.154 1.677 1.616a4.4 4.4 0 0 0 1.687-3.556c0-1.453-.752-2.185-1.687-1.616"/><path fill="#37474f" d="m154.94 202.738-.376-.214q-.445-.281-.915-.518l-.498-.284-.772-.447-.661-.376-.366-.203a1.5 1.5 0 0 1-.508-.407 2.2 2.2 0 0 1-.407-.609 3.7 3.7 0 0 1-.335-1.565V84.597l3.791 2.225v113.416c.018.516.125 1.024.315 1.504.129.295.315.561.549.782q.063.091.162.143z"/><path fill="#4caf4f" d="M161.292 90.947a.9.9 0 0 1 .111-.407l1.586-3.291a.24.24 0 0 1 .071-.092.09.09 0 0 1 .102-.02.1.1 0 0 1 .03.02.22.22 0 0 1 .051.153v1.107q.018.173 0 .345c0 .082-.061.183-.112.295l-.844 1.737.844.773q.07.076.112.172.021.152 0 .305v1.036a.6.6 0 0 1-.051.224.4.4 0 0 1-.132.152h-.071l-1.565-1.392a.3.3 0 0 1-.091-.123.3.3 0 0 1-.021-.15zM167.105 82.707q.037-.168.111-.325a.6.6 0 0 1 .234-.244l.6-.345h.122a.18.18 0 0 1 .051.152.5.5 0 0 1 0 .122l-2.734 11.613a1.5 1.5 0 0 1-.112.315.56.56 0 0 1-.244.264l-.569.335a.1.1 0 0 1-.122 0 .2.2 0 0 1-.048-.074.827.827 0 0 1-.013-.21zM171.312 85.968a.94.94 0 0 1-.112.417l-1.585 3.282-.071.101a.12.12 0 0 1-.066.02.12.12 0 0 1-.066-.02.23.23 0 0 1 0-.162v-1.108a1.5 1.5 0 0 1 0-.335q.046-.158.122-.305l.833-1.737-.833-.762a.6.6 0 0 1-.122-.173 1 1 0 0 1 0-.305v-1.107a.7.7 0 0 1 0-.224.4.4 0 0 1 .132-.152.06.06 0 0 1 .071 0l1.585 1.453q.06.054.091.129.029.075.021.155zM175.723 85.217a.13.13 0 0 1 .162 0c.046.057.068.13.061.203v1.209a.65.65 0 0 1-.061.274.5.5 0 0 1-.162.193l-.742.427a.11.11 0 0 1-.152 0 .2.2 0 0 1-.06-.088q-.018-.051-.012-.105v-1.22a.55.55 0 0 1 .072-.273.36.36 0 0 1 .152-.183zM178.233 83.774a.124.124 0 0 1 .153 0c.045.057.067.13.061.203v1.21a.7.7 0 0 1-.061.273.36.36 0 0 1-.153.183l-.752.437a.12.12 0 0 1-.152 0 .28.28 0 0 1-.061-.203v-1.21q0-.142.061-.273a.4.4 0 0 1 .152-.194zM180.733 82.331a.13.13 0 0 1 .082-.031.12.12 0 0 1 .081.031q.035.04.05.09.016.05.011.103v1.22a.7.7 0 0 1-.061.274.4.4 0 0 1-.163.183l-.742.436a.121.121 0 0 1-.152 0 .24.24 0 0 1-.059-.093.2.2 0 0 1-.012-.11v-1.209a.55.55 0 0 1 .071-.274.43.43 0 0 1 .152-.193zM161.962 99.807l51.293-29.587c.427-.243.782-.07.782.397a1.68 1.68 0 0 1-.782 1.3l-51.262 29.586c-.437.254-.783.081-.783-.396a1.678 1.678 0 0 1 .752-1.3"/><path fill="#c8e6c9" d="m173.741 113.4 51.262-29.586c.427-.243.783-.07.783.397a1.7 1.7 0 0 1-.783 1.31l-51.262 29.586c-.437.244-.782.071-.782-.396a1.676 1.676 0 0 1 .782-1.311M173.741 120.208l32.115-18.532c.437-.254.783-.081.783.396a1.68 1.68 0 0 1-.783 1.301l-32.115 18.532c-.437.243-.782.071-.782-.397a1.65 1.65 0 0 1 .782-1.3M173.741 127.005l32.115-18.532c.437-.254.783-.071.783.396a1.68 1.68 0 0 1-.783 1.301l-32.115 18.532c-.437.254-.782.071-.782-.397a1.65 1.65 0 0 1 .782-1.3"/><path fill="#4caf4f" d="m216.304 68.463 14.624-8.474c.437-.244.783-.07.783.397a1.69 1.69 0 0 1-.783 1.31l-14.624 8.474c-.437.243-.783.07-.783-.397a1.676 1.676 0 0 1 .783-1.31M174.635 167.361l38.62-22.353c.427-.254.782-.071.782.397a1.7 1.7 0 0 1-.238.742 1.7 1.7 0 0 1-.544.558l-38.62 22.352c-.437.244-.782.071-.782-.396a1.69 1.69 0 0 1 .782-1.3M216.304 143.241l14.584-8.504c.437-.254.782-.071.782.396a1.65 1.65 0 0 1-.782 1.3l-14.584 8.464c-.437.254-.783.071-.783-.397a1.679 1.679 0 0 1 .783-1.259M181.191 143.058l49.697-28.652c.437-.243.782-.071.782.397a1.67 1.67 0 0 1-.782 1.31l-49.697 28.652c-.427.244-.783.071-.783-.407a1.7 1.7 0 0 1 .783-1.3M168.721 157.292l62.167-36.088c.437-.244.782-.072.782.396a1.67 1.67 0 0 1-.782 1.31l-62.167 36.079c-.427.254-.783.071-.783-.396a1.7 1.7 0 0 1 .783-1.301"/><path fill="#e8f5e9" d="m171.648 162.281 41.607-24.08c.427-.244.782-.071.782.397a1.708 1.708 0 0 1-.782 1.31l-41.577 24.079c-.437.244-.782.072-.782-.396a1.67 1.67 0 0 1 .752-1.31"/><path fill="#4caf4f" d="m168.721 150.241 8.222-4.745c.426-.254.782-.071.782.396a1.7 1.7 0 0 1-.782 1.301l-8.222 4.745c-.427.254-.783.071-.783-.397a1.656 1.656 0 0 1 .783-1.3M161.962 106.624l35.957-20.767c.437-.254.793-.071.793.396a1.68 1.68 0 0 1-.793 1.3l-35.957 20.768c-.437.254-.782.071-.782-.397a1.65 1.65 0 0 1 .782-1.3"/><path fill="#fff" d="m161.962 106.624 35.957-20.767c.437-.254.793-.071.793.396a1.68 1.68 0 0 1-.793 1.3l-35.957 20.768c-.437.254-.782.071-.782-.397a1.65 1.65 0 0 1 .782-1.3" opacity=".6"/><path fill="#4caf4f" d="m161.962 113.401 7.267-4.197c.427-.254.782-.081.782.397a1.7 1.7 0 0 1-.238.742 1.7 1.7 0 0 1-.544.558l-7.267 4.196c-.437.254-.782.071-.782-.396a1.65 1.65 0 0 1 .782-1.3"/><path fill="#fff" d="m161.962 113.401 7.267-4.197c.427-.254.782-.081.782.397a1.7 1.7 0 0 1-.238.742 1.7 1.7 0 0 1-.544.558l-7.267 4.196c-.437.254-.782.071-.782-.396a1.65 1.65 0 0 1 .782-1.3" opacity=".6"/><path fill="#4caf4f" d="m161.962 120.208 7.267-4.196c.427-.254.782-.071.782.396a1.72 1.72 0 0 1-.782 1.301l-7.267 4.196c-.437.254-.782.071-.782-.397a1.65 1.65 0 0 1 .782-1.3"/><path fill="#fff" d="m161.962 120.208 7.267-4.196c.427-.254.782-.071.782.396a1.72 1.72 0 0 1-.782 1.301l-7.267 4.196c-.437.254-.782.071-.782-.397a1.65 1.65 0 0 1 .782-1.3" opacity=".6"/><path fill="#4caf4f" d="m161.962 127.005 7.267-4.196c.427-.254.782-.071.782.396a1.7 1.7 0 0 1-.782 1.301l-7.267 4.196c-.437.254-.782.071-.782-.397a1.67 1.67 0 0 1 .782-1.3"/><path fill="#fff" d="m161.962 127.005 7.267-4.196c.427-.254.782-.071.782.396a1.7 1.7 0 0 1-.782 1.301l-7.267 4.196c-.437.254-.782.071-.782-.397a1.67 1.67 0 0 1 .782-1.3" opacity=".6"/><path fill="#4caf4f" d="m161.962 133.802 7.267-4.196c.427-.254.782-.071.782.396a1.7 1.7 0 0 1-.782 1.301l-7.267 4.196c-.437.254-.782.071-.782-.396a1.67 1.67 0 0 1 .782-1.301"/><path fill="#fff" d="m161.962 133.802 7.267-4.196c.427-.254.782-.071.782.396a1.7 1.7 0 0 1-.782 1.301l-7.267 4.196c-.437.254-.782.071-.782-.396a1.67 1.67 0 0 1 .782-1.301" opacity=".6"/><path fill="#c8e6c9" d="m173.741 174.828 32.115-18.532c.437-.254.783-.071.783.397a1.67 1.67 0 0 1-.783 1.3l-32.115 18.532c-.437.254-.782.071-.782-.396a1.65 1.65 0 0 1 .782-1.301M173.741 181.625l32.115-18.532c.437-.254.783-.071.783.397a1.67 1.67 0 0 1-.783 1.3l-32.115 18.532c-.437.254-.782.071-.782-.396a1.68 1.68 0 0 1 .782-1.301M210.531 153.594l20.184-11.613c.437-.244.782-.071.782.396a1.67 1.67 0 0 1-.782 1.311l-20.184 11.602c-.427.254-.782.072-.782-.396a1.67 1.67 0 0 1 .782-1.3M210.531 160.391l20.184-11.613c.437-.244.782-.071.782.406a1.68 1.68 0 0 1-.782 1.301l-20.184 11.603c-.427.254-.782.071-.782-.397.021-.262.103-.516.238-.742.136-.225.322-.416.544-.558"/><path fill="#4caf4f" d="m161.962 181.625 7.267-4.196c.427-.254.782-.071.782.397a1.68 1.68 0 0 1-.782 1.3l-7.267 4.196c-.437.254-.782.081-.782-.396a1.68 1.68 0 0 1 .782-1.301"/><path fill="#fff" d="m161.962 181.625 7.267-4.196c.427-.254.782-.071.782.397a1.68 1.68 0 0 1-.782 1.3l-7.267 4.196c-.437.254-.782.081-.782-.396a1.68 1.68 0 0 1 .782-1.301" opacity=".6"/><path fill="#4caf4f" d="m161.962 188.422 7.267-4.196c.427-.244.782-.071.782.397a1.68 1.68 0 0 1-.782 1.3l-7.267 4.206c-.437.244-.782.071-.782-.396a1.676 1.676 0 0 1 .782-1.311"/><path fill="#fff" d="m161.962 188.422 7.267-4.196c.427-.244.782-.071.782.397a1.68 1.68 0 0 1-.782 1.3l-7.267 4.206c-.437.244-.782.071-.782-.396a1.676 1.676 0 0 1 .782-1.311" opacity=".6"/><path fill="#4caf4f" d="m200.968 84.1 9.309-5.355c.427-.254.783-.071.783.396a1.69 1.69 0 0 1-.783 1.3l-9.309 5.355c-.437.254-.793.081-.793-.397a1.68 1.68 0 0 1 .793-1.3"/><path fill="#fff" d="m200.968 84.1 9.309-5.355c.427-.254.783-.071.783.396a1.69 1.69 0 0 1-.783 1.3l-9.309 5.355c-.437.254-.793.081-.793-.397a1.68 1.68 0 0 1 .793-1.3" opacity=".6"/><path fill="#e8f5e9" d="m173.182 134.066 45.358-26.142c.426-.254.782-.071.782.397a1.7 1.7 0 0 1-.782 1.3l-45.358 26.132c-.427.254-.782.071-.782-.396a1.68 1.68 0 0 1 .782-1.291M161.962 147.508l68.926-39.889c.437-.254.782-.071.782.397a1.65 1.65 0 0 1-.782 1.3l-68.926 39.889c-.437.254-.782.071-.782-.397a1.65 1.65 0 0 1 .782-1.3M221.578 106.167l9.309-5.355c.437-.254.783-.071.783.397a1.66 1.66 0 0 1-.783 1.3l-9.309 5.365c-.437.243-.782.071-.782-.407a1.68 1.68 0 0 1 .782-1.3"/><path fill="#4caf4f" d="m173.741 106.614 35.957-20.767c.437-.254.792-.072.792.396a1.686 1.686 0 0 1-.792 1.3l-35.957 20.778c-.437.254-.793.071-.793-.397a1.67 1.67 0 0 1 .793-1.31"/><path fill="#fff" d="m173.741 106.614 35.957-20.767c.437-.254.792-.072.792.396a1.686 1.686 0 0 1-.792 1.3l-35.957 20.778c-.437.254-.793.071-.793-.397a1.67 1.67 0 0 1 .793-1.31" opacity=".6"/><path fill="#4caf4f" d="m212.747 84.089 9.309-5.355c.427-.253.782-.08.782.397a1.71 1.71 0 0 1-.782 1.3l-9.309 5.355c-.437.254-.793.07-.793-.397a1.68 1.68 0 0 1 .793-1.3"/><path fill="#fff" d="m212.747 84.089 9.309-5.355c.427-.253.782-.08.782.397a1.71 1.71 0 0 1-.782 1.3l-9.309 5.355c-.437.254-.793.07-.793-.397a1.68 1.68 0 0 1 .793-1.3" opacity=".6"/><path fill="#103e13" d="m49.682 227.67-29.107 16.795a2.58 2.58 0 0 0-1.169 2.032v35.083c0 .741.529 1.016 1.169.67l29.107-16.764a2.6 2.6 0 0 0 1.168-2.032v-35.113c0-.742-.528-1.036-1.168-.671M41.43 158.013l-21.485 12.375a1.18 1.18 0 0 0-.539.925v11.989c0 .345.244.477.539.304l21.484-12.375a1.15 1.15 0 0 0 .539-.914v-11.999c0-.335-.244-.477-.539-.305M41.43 182.936l-21.485 12.375a1.18 1.18 0 0 0-.539.924v11.989c0 .335.244.478.539.305l21.484-12.375a1.17 1.17 0 0 0 .539-.925v-11.988c0-.336-.244-.478-.539-.305M41.43 207.889l-21.485 12.344a1.18 1.18 0 0 0-.539.925v11.989c0 .335.244.477.539.305l21.484-12.355a1.18 1.18 0 0 0 .539-.925v-11.989c0-.365-.244-.497-.539-.294" opacity=".1"/><path fill="#4caf4f" d="m53.29 229.073-29.067 16.764a2.58 2.58 0 0 0-1.168 2.032v35.082a2.55 2.55 0 0 0 1.168 2.032l2.216 1.25a2.6 2.6 0 0 0 2.337 0l29.107-16.764a2.59 2.59 0 0 0 1.169-2.032v-35.164a2.55 2.55 0 0 0-1.179-2.032l-2.205-1.25a2.6 2.6 0 0 0-2.379.082"/><path fill="#103e13" d="M28.736 286.172a2.66 2.66 0 0 1-2.338 0l-2.175-1.25a2.52 2.52 0 0 1-1.168-2.032v-35.042c.02-.422.15-.831.376-1.188l4.522 2.621a2.35 2.35 0 0 0-.345 1.148v35.072c-.04.681.437 1.067 1.128.671" opacity=".2"/><path fill="#fff" d="M58.99 232.11c-.09-.589-.568-.802-1.148-.467l-29.106 16.774a2.3 2.3 0 0 0-.823.864l-4.533-2.621c.194-.338.47-.621.803-.823l29.106-16.764a2.58 2.58 0 0 1 2.338 0l2.205 1.249a2.6 2.6 0 0 1 1.159 1.788" opacity=".5"/><path fill="#4caf4f" d="m57.843 231.643-29.107 16.774a2.58 2.58 0 0 0-1.169 2.032v35.073c0 .741.529 1.016 1.169.67l29.107-16.764A2.57 2.57 0 0 0 59 267.396v-35.123c0-.701-.518-1.016-1.158-.63"/><path fill="#fff" d="M29.498 266.573a1.9 1.9 0 0 1 .122-.721 5 5 0 0 1 .376-.681l6.86-11.095a1 1 0 0 1 .112-.132l.081-.061a.2.2 0 0 1 .254 0q.058.07.084.158.027.087.018.178v4.287c.01.31-.056.617-.193.894q-.16.3-.356.579l-3.049 4.613 3.05 1.179q.187.058.355.162c.132.081.193.305.193.661v4.287c.002.158-.033.315-.102.457a.7.7 0 0 1-.254.305h-.081a.2.2 0 0 1-.112 0l-6.86-3.17a1 1 0 0 1-.376-.254.94.94 0 0 1-.122-.569zM44.468 247.757q.09-.36.254-.691c.107-.226.28-.414.498-.539l2.297-1.33a.2.2 0 0 1 .137-.05.2.2 0 0 1 .137.05.47.47 0 0 1 .112.345q.012.126 0 .254l-5.803 24.73a2.7 2.7 0 0 1-.244.67 1.23 1.23 0 0 1-.508.559l-2.256 1.3a.2.2 0 0 1-.264 0 .47.47 0 0 1-.112-.345.9.9 0 0 1 0-.254zM57.08 251.76c.006.246-.036.491-.121.721a6 6 0 0 1-.377.671l-6.87 11.095a.6.6 0 0 1-.101.132l-.082.061c-.101.061-.193.061-.254 0a.45.45 0 0 1-.101-.336v-4.277a1.8 1.8 0 0 1 .193-.884c.132-.234.244-.427.345-.579l3.05-4.633-3.05-1.148a1.3 1.3 0 0 1-.345-.183c-.132-.091-.193-.315-.193-.66v-4.288a1 1 0 0 1 .101-.457.64.64 0 0 1 .254-.305h.183l6.87 3.17c.143.055.272.142.377.254.095.174.137.371.121.569z"/><path fill="#4caf4f" d="M45.068 159.364 23.583 171.75a1.15 1.15 0 0 0-.538.914v11.999a1.16 1.16 0 0 0 .538.914l2.124 1.209a1.19 1.19 0 0 0 1.017 0l21.545-12.425a1.2 1.2 0 0 0 .529-.925v-11.989a1.16 1.16 0 0 0-.54-.914l-2.113-1.209a1.25 1.25 0 0 0-1.077.04"/><path fill="#103e13" d="M45.068 159.364 23.583 171.75a1.15 1.15 0 0 0-.538.914v11.999a1.16 1.16 0 0 0 .538.914l2.124 1.209a1.19 1.19 0 0 0 1.017 0l21.545-12.425a1.2 1.2 0 0 0 .529-.925v-11.989a1.16 1.16 0 0 0-.54-.914l-2.113-1.209a1.25 1.25 0 0 0-1.077.04" opacity=".4"/><path fill="#4caf4f" d="M48.787 161.386c0-.264-.254-.355-.529-.203l-21.484 12.375a1.1 1.1 0 0 0-.376.396l-3.192-1.829c.086-.158.212-.292.366-.386l21.485-12.375a1.23 1.23 0 0 1 1.077 0l2.114 1.209a1.13 1.13 0 0 1 .539.813"/><path fill="#4caf4f" d="m48.269 161.153-21.495 12.405a1.16 1.16 0 0 0-.528.925v11.988c0 .336.234.478.528.305l21.495-12.415a1.17 1.17 0 0 0 .529-.925v-11.989c0-.294-.184-.437-.529-.294"/><path fill="#103e13" d="m48.269 161.153-21.495 12.405a1.16 1.16 0 0 0-.528.925v11.988c0 .336.234.478.528.305l21.495-12.415a1.17 1.17 0 0 0 .529-.925v-11.989c0-.294-.184-.437-.529-.294" opacity=".2"/><path fill="#f5f7fa" d="M31.551 176.626v1.778q.014.216.061.427c.021.114.074.22.152.305.07.072.165.115.265.122a.8.8 0 0 0 .386-.132q.225-.111.386-.305.146-.156.244-.345.096-.17.152-.356c0-.122.061-.224.082-.315q.015-.148.07-.285a.4.4 0 0 1 .164-.162l.894-.518h.101q.027.026.04.06a.2.2 0 0 1 .011.072c-.009.378-.067.754-.172 1.117a5.36 5.36 0 0 1-1.129 2.032 3.4 3.4 0 0 1-.843.691c-.265.17-.57.265-.884.275a1.02 1.02 0 0 1-.66-.234 1.4 1.4 0 0 1-.418-.671 3.6 3.6 0 0 1-.172-1.016v-1.879a6.3 6.3 0 0 1 .162-1.199q.15-.603.427-1.158c.176-.366.398-.708.66-1.016a3.6 3.6 0 0 1 .885-.742c.255-.157.544-.251.843-.274.235-.018.47.039.671.162.206.136.365.331.457.559.116.291.175.601.173.914a.4.4 0 0 1-.05.193.28.28 0 0 1-.102.133l-.894.518c-.082 0-.133.05-.163 0a.4.4 0 0 1-.071-.193c0-.071 0-.153-.082-.234a.5.5 0 0 0-.152-.183.44.44 0 0 0-.244-.061.9.9 0 0 0-.386.142c-.15.08-.282.191-.386.325a1.6 1.6 0 0 0-.265.417 2 2 0 0 0-.152.478 4 4 0 0 0-.061.558M37.435 170.347a1.8 1.8 0 0 1 .803-.274c.222-.016.444.029.64.132.176.106.32.257.417.437.102.191.154.404.153.62a.4.4 0 0 1 0 .183.25.25 0 0 1-.102.132l-.894.518a.3.3 0 0 1-.163 0l-.112-.061-.07-.071a.4.4 0 0 0-.123-.081.5.5 0 0 0-.213 0 .6.6 0 0 0-.295.111 2 2 0 0 0-.254.173 1.4 1.4 0 0 0-.214.203q-.09.119-.152.254a.7.7 0 0 0-.05.295c-.01.08.011.16.06.224q.045.043.104.061.058.02.12.01.206-.009.406-.061l.63-.163q.325-.095.661-.081a.8.8 0 0 1 .468.173c.137.129.235.295.284.477q.104.395.091.803a3.4 3.4 0 0 1-.162 1.016 4.6 4.6 0 0 1-.437 1.016c-.19.309-.419.593-.681.843-.25.254-.535.472-.843.65-.258.165-.55.269-.854.305a1.08 1.08 0 0 1-1.098-.569 1.7 1.7 0 0 1-.162-.701.5.5 0 0 1 .05-.193.25.25 0 0 1 .092-.122l.904-.518a.27.27 0 0 1 .153-.051.16.16 0 0 1 .101.051l.092.081a.3.3 0 0 0 .142.112.4.4 0 0 0 .234 0 .7.7 0 0 0 .346-.122q.343-.19.61-.477a.83.83 0 0 0 .243-.58.23.23 0 0 0-.091-.213.6.6 0 0 0-.264 0 2.6 2.6 0 0 0-.458.091l-.66.173a1.01 1.01 0 0 1-1.017-.183 1.84 1.84 0 0 1-.325-1.26c0-.319.045-.637.132-.944q.136-.501.386-.955.256-.462.61-.854c.223-.24.48-.445.762-.61M42.364 167.472c.244-.15.519-.24.803-.264.219-.018.437.028.63.132.184.098.333.251.427.437.098.192.15.404.153.62a.4.4 0 0 1 0 .183.4.4 0 0 1-.102.132l-.904.518a.25.25 0 0 1-.153 0 .22.22 0 0 1-.122-.051l-.06-.071a.4.4 0 0 0-.123-.081.5.5 0 0 0-.213 0 .74.74 0 0 0-.295.122q-.136.072-.254.172a1.4 1.4 0 0 0-.214.203 1 1 0 0 0-.152.254.7.7 0 0 0-.06.295.33.33 0 0 0 .07.224.25.25 0 0 0 .214.071q.211-.007.416-.061l.63-.163c.21-.068.43-.096.65-.081a.76.76 0 0 1 .479.173c.132.128.227.289.274.467q.108.399.102.813c-.006.345-.06.687-.163 1.016a4.4 4.4 0 0 1-1.962 2.479c-.26.159-.55.262-.853.305a1.16 1.16 0 0 1-.66-.122 1.1 1.1 0 0 1-.438-.457 1.5 1.5 0 0 1-.162-.691.44.44 0 0 1 0-.193.3.3 0 0 1 .101-.122l.905-.518c.06 0 .111-.061.142 0a.2.2 0 0 1 .112 0l.081.091a.6.6 0 0 0 .153.112.4.4 0 0 0 .233 0 .9.9 0 0 0 .346-.122q.339-.195.61-.478a.82.82 0 0 0 .243-.579.24.24 0 0 0-.09-.213.5.5 0 0 0-.265 0 2.5 2.5 0 0 0-.458.091l-.66.163a1.02 1.02 0 0 1-1.016-.173 1.87 1.87 0 0 1-.336-1.27c.005-.32.053-.638.142-.945.086-.331.216-.649.387-.945q.25-.47.61-.863.357-.362.802-.61"/><path fill="#4caf4f" d="m45.068 184.288-21.485 12.426a1.2 1.2 0 0 0-.538.924v11.989a1.18 1.18 0 0 0 .538.925l2.124 1.198a1.15 1.15 0 0 0 1.017 0l21.494-12.375a1.22 1.22 0 0 0 .529-.924v-11.989a1.18 1.18 0 0 0-.539-.924l-2.114-1.199a1.22 1.22 0 0 0-1.026-.051"/><path fill="#103e13" d="m45.068 184.288-21.485 12.426a1.2 1.2 0 0 0-.538.924v11.989a1.18 1.18 0 0 0 .538.925l2.124 1.198a1.15 1.15 0 0 0 1.017 0l21.494-12.375a1.22 1.22 0 0 0 .529-.924v-11.989a1.18 1.18 0 0 0-.539-.924l-2.114-1.199a1.22 1.22 0 0 0-1.026-.051" opacity=".4"/><path fill="#4caf4f" d="M48.787 186.309c0-.264-.254-.366-.529-.213l-21.484 12.385a1.1 1.1 0 0 0-.376.396l-3.192-1.829c.086-.159.212-.292.366-.386l21.485-12.375a1.19 1.19 0 0 1 1.077 0l2.124 1.25a1.14 1.14 0 0 1 .529.772"/><path fill="#4caf4f" d="m48.269 186.096-21.495 12.385a1.14 1.14 0 0 0-.528.914v11.999c0 .335.234.478.528.305l21.495-12.375a1.18 1.18 0 0 0 .529-.925v-11.988c0-.346-.184-.478-.529-.315"/><path fill="#103e13" d="m48.269 186.096-21.495 12.385a1.14 1.14 0 0 0-.528.914v11.999c0 .335.234.478.528.305l21.495-12.375a1.18 1.18 0 0 0 .529-.925v-11.988c0-.346-.184-.478-.529-.315" opacity=".2"/><path fill="#f5f7fa" d="M31.653 198.684a.088.088 0 0 1 .066-.028.1.1 0 0 1 .066.028.2.2 0 0 1 .06.162v6.828a.54.54 0 0 1-.06.234.32.32 0 0 1-.133.152l-.894.518a.088.088 0 0 1-.066.028.1.1 0 0 1-.066-.028v-2.753l-1.524.884v2.58c0 .082-.02.163-.061.234a.36.36 0 0 1-.122.163l-.905.518a.1.1 0 0 1-.066.024.1.1 0 0 1-.066-.024.26.26 0 0 1 0-.173v-6.827a.7.7 0 0 1 0-.234.44.44 0 0 1 .132-.163l.905-.518a.1.1 0 0 1 .122 0 .23.23 0 0 1 .06.173v2.54l1.525-.874v-2.55a.5.5 0 0 1 0-.234.4.4 0 0 1 .132-.152zM36.673 195.788a.089.089 0 0 1 .066-.028.1.1 0 0 1 .066.028c.02.053.02.11 0 .163v1.117a.6.6 0 0 1 0 .234.37.37 0 0 1-.132.163l-1.21.701v5.415a.7.7 0 0 1-.06.244.43.43 0 0 1-.132.162l-.905.519a.13.13 0 0 1-.066.019.13.13 0 0 1-.066-.019.26.26 0 0 1 0-.173v-5.416l-1.21.691a.1.1 0 0 1-.132 0 .3.3 0 0 1-.05-.172v-1.118a.6.6 0 0 1 .05-.234.36.36 0 0 1 .133-.162zM39.824 199.497a.5.5 0 0 1-.092-.122l-.65-1.372v3.495a.5.5 0 0 1-.051.234.36.36 0 0 1-.132.162l-.895.519a.1.1 0 0 1-.066.024.1.1 0 0 1-.066-.024.23.23 0 0 1 0-.173v-6.818a.5.5 0 0 1 0-.233.37.37 0 0 1 .133-.163l.792-.457H39a.5.5 0 0 1 .092.112l1.118 2.286 1.108-3.566q.034-.116.091-.224a.46.46 0 0 1 .203-.234l.793-.457a.088.088 0 0 1 .066-.028.1.1 0 0 1 .066.028.2.2 0 0 1 0 .163v6.827a.5.5 0 0 1 0 .234.44.44 0 0 1-.132.163l-.894.518a.13.13 0 0 1-.066.019.13.13 0 0 1-.066-.019.23.23 0 0 1 0-.173v-3.505l-.65 2.113q-.038.12-.092.234a.4.4 0 0 1-.163.183l-.437.243c-.122.041-.173.051-.213.011M47.263 195.382h.122a.2.2 0 0 1 .06.162v1.169q0 .125-.06.233a.3.3 0 0 1-.122.163l-3.181 1.829a.1.1 0 0 1-.066.024.1.1 0 0 1-.066-.024.27.27 0 0 1 0-.173v-6.827a.6.6 0 0 1 0-.224.37.37 0 0 1 .132-.163l.894-.518a.1.1 0 0 1 .03-.021.1.1 0 0 1 .036-.007.1.1 0 0 1 .036.007.1.1 0 0 1 .03.021.2.2 0 0 1 .061.163v5.425z"/><path fill="#4caf4f" d="m45.068 209.21-21.485 12.375a1.18 1.18 0 0 0-.538.924v11.989a1.18 1.18 0 0 0 .538.925l2.124 1.199a1.2 1.2 0 0 0 1.017 0l21.545-12.375a1.23 1.23 0 0 0 .529-.925v-11.989a1.18 1.18 0 0 0-.54-.924l-2.113-1.199a1.19 1.19 0 0 0-1.077 0"/><path fill="#103e13" d="m45.068 209.21-21.485 12.375a1.18 1.18 0 0 0-.538.924v11.989a1.18 1.18 0 0 0 .538.925l2.124 1.199a1.2 1.2 0 0 0 1.017 0l21.545-12.375a1.23 1.23 0 0 0 .529-.925v-11.989a1.18 1.18 0 0 0-.54-.924l-2.113-1.199a1.19 1.19 0 0 0-1.077 0" opacity=".4"/><path fill="#4caf4f" d="M48.787 211.232c0-.265-.254-.366-.529-.214l-21.484 12.375a1.2 1.2 0 0 0-.376.407l-3.192-1.839c.09-.154.215-.283.366-.376l21.495-12.375a1.21 1.21 0 0 1 1.077 0l2.114 1.209a1.14 1.14 0 0 1 .529.813"/><path fill="#4caf4f" d="m48.269 211.018-21.495 12.375a1.19 1.19 0 0 0-.528.925v12.019c0 .345.234.478.528.315l21.495-12.405a1.2 1.2 0 0 0 .529-.925v-11.989c0-.345-.184-.477-.529-.315"/><path fill="#103e13" d="m48.269 211.018-21.495 12.375a1.19 1.19 0 0 0-.528.925v12.019c0 .345.234.478.528.315l21.495-12.405a1.2 1.2 0 0 0 .529-.925v-11.989c0-.345-.184-.477-.529-.315" opacity=".2"/><path fill="#f5f7fa" d="M31.968 226.228v1.788q.013.216.06.427.046.167.153.304a.42.42 0 0 0 .264.122.8.8 0 0 0 .386-.132 1.5 1.5 0 0 0 .387-.305q.142-.161.254-.345.088-.171.142-.356c0-.121.061-.223.081-.325q.024-.14.072-.274a.36.36 0 0 1 .162-.163l.894-.518a.1.1 0 0 1 .056-.019q.031 0 .056.019v.132a4 4 0 0 1-.173 1.118 5.3 5.3 0 0 1-.447 1.087q-.287.507-.68.935a3.2 3.2 0 0 1-.844.691c-.261.17-.563.269-.874.284a1.02 1.02 0 0 1-.66-.233 1.5 1.5 0 0 1-.428-.671 3.7 3.7 0 0 1-.172-1.016v-1.88c.013-.404.07-.807.172-1.199q.19-.602.508-1.148.267-.55.661-1.016a3.6 3.6 0 0 1 .884-.741c.256-.157.545-.251.844-.275.239-.023.478.034.68.163.204.136.36.331.448.559.12.289.18.601.173.914a.44.44 0 0 1 0 .193.4.4 0 0 1-.112.132l-.894.518h-.163a.5.5 0 0 1-.071-.193c0-.071 0-.152-.081-.233a.37.37 0 0 0-.143-.183.5.5 0 0 0-.254-.061.95.95 0 0 0-.386.132 1.5 1.5 0 0 0-.386.325 2.3 2.3 0 0 0-.264.427 3 3 0 0 0-.153.477 4 4 0 0 0-.152.539M38.269 224.826v1.737a.7.7 0 0 1 0 .234.36.36 0 0 1-.133.162l-.863.498a.1.1 0 0 1-.066.025.1.1 0 0 1-.066-.025.22.22 0 0 1 0-.173v-1.737l-1.017.61a.1.1 0 0 1-.03.021.1.1 0 0 1-.036.007.1.1 0 0 1-.036-.007.1.1 0 0 1-.03-.021.24.24 0 0 1 0-.163v-1.067a.6.6 0 0 1 0-.233.37.37 0 0 1 .132-.163l1.017-.61v-1.808a.5.5 0 0 1 0-.234.34.34 0 0 1 .132-.152l.863-.508a.12.12 0 0 1 .133 0c.019.056.019.117 0 .173v1.737l1.016-.61a.13.13 0 0 1 .066-.019q.035 0 .066.019.03.037.044.081.012.045.007.092v1.067a.49.49 0 0 1-.183.396zM42.822 222.194v1.748a.5.5 0 0 1-.061.233.4.4 0 0 1-.122.153l-.874.498a.1.1 0 0 1-.028.02.1.1 0 0 1-.033.007.1.1 0 0 1-.034-.007.1.1 0 0 1-.027-.02.2.2 0 0 1-.061-.163v-1.747l-1.017.619a.1.1 0 0 1-.132 0 .226.226 0 0 1-.061-.172v-1.067a.54.54 0 0 1 .061-.234.3.3 0 0 1 .132-.152l1.017-.62v-1.737c0-.082.02-.163.06-.234a.36.36 0 0 1 .123-.163l.874-.498a.1.1 0 0 1 .027-.02.1.1 0 0 1 .034-.007q.017 0 .033.007.015.008.028.02a.2.2 0 0 1 .06.163v1.748l1.017-.61a.088.088 0 0 1 .066-.028.1.1 0 0 1 .066.028c.02.056.02.117 0 .173v1.016a.6.6 0 0 1 0 .223.37.37 0 0 1-.132.163z"/><path fill="#333" d="M282.048 68.27 264.252 78.55a1.43 1.43 0 0 0-.63 1.108V101.4c.011.22.075.433.187.622.111.19.267.349.453.465l2.521 1.443a1.45 1.45 0 0 0 1.28 0l17.796-10.292a1.412 1.412 0 0 0 .63-1.097V70.799a1.38 1.38 0 0 0-.64-1.097l-2.47-1.443a1.42 1.42 0 0 0-1.331.01"/><path fill="#333" d="M268.063 103.921a1.49 1.49 0 0 1-1.28 0l-2.521-1.443a1.354 1.354 0 0 1-.64-1.087V79.648c.01-.23.08-.454.203-.65l3.791 2.174c-.122.204-.193.427-.193.082v21.742c0 .925.264 1.138.64.925"/><path fill="#fff" d="M286.479 70.728c-.051-.325-.305-.437-.62-.254l-17.796 10.292a1.3 1.3 0 0 0-.447.468l-3.801-2.175c.111-.185.265-.341.447-.457l17.796-10.292a1.4 1.4 0 0 1 1.27 0l2.52 1.433a1.37 1.37 0 0 1 .631.985" opacity=".4"/><path fill="#37474f" d="M261.884 95.783c-.406-.244-3.445-1.951-3.536-2.032a.6.6 0 0 1-.188-.18.58.58 0 0 1-.073-.5.6.6 0 0 1 .128-.225l5.407-6.197 3.801 2.184-5.65 6.035a.6.6 0 0 0 .111.915"/><path fill="#fff" d="M261.884 95.783c-.406-.244-3.445-1.951-3.536-2.032a.6.6 0 0 1-.188-.18.58.58 0 0 1-.073-.5.6.6 0 0 1 .128-.225l5.407-6.197 3.801 2.184-5.65 6.035a.6.6 0 0 0 .111.915" opacity=".4"/><path fill="#37474f" d="m285.859 70.423-17.796 10.292a1.39 1.39 0 0 0-.64 1.098v7.04l-5.651 6.035a.575.575 0 0 0-.183.64.565.565 0 0 0 .549.376l5.285-.385v8.077c0 .406.285.569.64.365l17.796-10.292c.183-.12.336-.283.446-.473s.172-.404.184-.624V70.83c0-.448-.285-.61-.63-.407"/><path fill="#f5f7fa" d="m282.363 89.717-3.649-2.733 3.761-7.193a1.366 1.366 0 0 0-2.419-1.27l-3.557 6.797-3.252-2.459a1.37 1.37 0 0 0-1.01-.263 1.36 1.36 0 0 0-1.133 1.006 1.36 1.36 0 0 0 .496 1.431l3.618 2.733-3.608 6.889a1.375 1.375 0 0 0 .58 1.849c.195.1.411.151.63.152a1.36 1.36 0 0 0 1.209-.731l3.395-6.482 3.262 2.459a1.37 1.37 0 0 0 1.911-.265 1.373 1.373 0 0 0-.234-1.92"/><path fill="#263238" d="M365.593 349.394a8.84 8.84 0 0 1 .935 4.603c-.072 1.391-.905 3.2-.529 6.339s1.098 4.136 1.433 6.35a7.8 7.8 0 0 1-1.23 5.903c-1.301 2.114-4.166 3.79-9.837 3.587-4.574-.163-6.423-2.51-6.525-5.202z"/><path fill="#37474f" d="M364.292 342.912a11 11 0 0 1 .274 1.778c.173 1.067.488 2.032.742 3.119.071.274.132.549.193.823.437 2.103 0 4.278 0 6.421.176 2.533.622 5.04 1.331 7.478 1.017 4.45 1.189 7.427-2.703 10.506-2.033 1.625-4.299 1.676-6.901 1.747-2 .07-3.982-.408-5.732-1.382-1.666-1.229-1.646-2.265-1.656-2.662-.153-4.724 1.555-10.221 1.9-14.935.129-1.269.156-2.547.082-3.82-.163-1.565-.702-3.119-.874-4.694a2.73 2.73 0 0 1 .213-1.737 2.78 2.78 0 0 1 2.104-.945c2.032-.275 4.146-.478 6.23-.63.49-.093.997.009 1.412.284.407.366.417 1.016.529 1.514s.498 1.138 1.016 1.016a.91.91 0 0 0 .63-.792c.051-.346.204-3.048.193-3.445.041.021.773-.091 1.017.356"/><path fill="#263238" d="M295.468 358.589a3.5 3.5 0 0 0 0 2.601c.335.772 4.208 3.17 9.563 3.048a22.37 22.37 0 0 0 11.18-3.414c2.083-1.27 4.217-1.432 6.87-1.483 2.652-.051 5.762-1.016 6.667-2.205a6.36 6.36 0 0 0 0-3.566z"/><path fill="#37474f" d="M314.859 342.77q-.307.573-.549 1.178a9.4 9.4 0 0 1-2.947 3.668 30.5 30.5 0 0 1-5.915 3.19c-1.321.59-2.703.752-4.065 1.219a22.7 22.7 0 0 0-4.34 1.911c-2.154 1.32-2.561 4.866-.233 6.37 2.032 1.29 7.388 2.824 13.14 1.443 3.141-.752 6.708-3.932 10.793-4.064 2.592-.092 7.521-.62 9.269-2.52.64-2.835-.061-3.637-.64-6.096a19.5 19.5 0 0 1-.488-4.145c0-.732.488-2.835-1.016-3.048l-.153 1.574s-.294.529-1.9.813c-.519.092-.925.772-1.199 1.392-.275.62-.448 1.097-1.017 1.087a1.01 1.01 0 0 1-.803-.63 7 7 0 0 1-.294-1.016 4.07 4.07 0 0 0-2.429-2.408 12.4 12.4 0 0 0-2.846-.599c-.732-.112-1.341-.427-2.033.203a2.3 2.3 0 0 0-.335.478"/><path fill="#455a64" d="M356.558 221.926c1.016 15.515 1.555 24.547 4.329 66.884a110.7 110.7 0 0 1 3.872 22.189c.549 9.368 1.88 37.592 1.88 37.592s-7.551 6.198-16.26 3.333c0 0-7.907-41.494-10.672-54.438-2.642-12.425-4.675-26.009-4.675-26.009l-1.961 17.333s.346 7.711.102 19.223c-.122 6.157-3.049 39.481-3.049 39.481s-10.6 4.816-17.755-1.371c0 0-.518-54.041-.63-59.609-.122-6.36 1.016-70.318 1.016-70.318z"/><path fill="#37474f" d="m334.992 271.487-5.417-28.377s-8.374-.732-12.998-5.405c0 0 .823 4.582 11.352 7.325l5.234 26.132-.092 17.648zM366.395 343.501a17.17 17.17 0 0 1-11.616 4.186s7.216-1.077 11.545-5.832zM330.459 343.583s-7.388 2.58-13.618.609c0 0 4.807 3.231 13.506.579z"/><path fill="#e8f5e9" d="M252.53 164.197a1.75 1.75 0 0 0-.305-.671 3.04 3.04 0 0 1 .061-3.048q.27-.337.447-.731c.203-.559-.051-1.189 0-1.788.183-2.673 5.02-1.504 6.555-1.016.447.152 3.049.822 4.065 1.178a13.8 13.8 0 0 1 .427-4.359c.691-2.773 2.978-2.489 3.11-.792.126 1.536.412 3.055.854 4.531.284 1.087 1.016 2.164 1.432 3.77.6 2.032.448 3.17 2.48 5.08 3.049 2.875 18.7 13.482 18.7 13.482 3.903-2.509 19.005-11.796 24.666-14.864 5.477-2.977 8.272-.579 8.272-.579l-4.776 17.587s-18.832 9.713-25.621 12.68c-4.736 2.032-6.83.894-12.053-3.76-4.147-3.921-9.615-9.591-15.519-14.813-2.358-2.093-4.065-3.16-5.732-3.241-.63 0-1.26-.071-1.88-.132-1.403-.163-3.049-.508-3.73-1.9-.234-.467-.346-1.016-.539-1.483-.295-.752-.762-1.423-1.016-2.175a3.04 3.04 0 0 1-.203-1.595c0-.437.366-.874.305-1.361"/><path fill="#455a64" d="M324.29 163.039c-4.817 0-6.687 0-12.805 3.474s-18.05 11.369-18.05 11.369 5.346 2.977 6.413 13.544l19.31-9.063z"/><path fill="#c8e6c9" d="M261.493 159.737c1.596.386 2.094 1.392 2.206 3.637.061 1.331.62 3.759 2.134 4.643a3.46 3.46 0 0 1-1.941-.681c-.732-.66-.925-.721-1.281-.294-.263.286-.59.506-.955.64a1.722 1.722 0 0 1 .295 2.032c-.62 1.199-3.74 1.432-6.383.284 0 0 4.238 1.016 5.082-.366.843-1.381-1.433-2.885-3.049-3.22 0 0 4.065.68 4.593-.671.529-1.351-1.199-2.235-3.597-2.672 0 0 3.354.376 3.841-.792a2.03 2.03 0 0 0-.945-2.54M290.315 179.864a12.57 12.57 0 0 1 4.696 5.791s.335-4.46-3.334-6.655z"/><path fill="#4caf4f" d="M312.176 180.412c.6-11.958 5.417-16.784 12.114-17.374l15.052-1.016c4.065.945 14.634 2.977 14.634 2.977 4.381 1.311 7.46 12.731 6.433 19.233-1.026 6.503-3.17 11.461-3.77 22.403.173 10.363.325 12.416.325 16.48-9.36 5.943-34.503 7.183-44.392 1.219 0 0-.172-10.018-.376-16.398-.345-10.943-.223-23.409-.02-27.524"/><path fill="#37474f" d="M316.129 129.683a3.87 3.87 0 0 0-1.951 3.444 5.08 5.08 0 0 0 .854 2.937 6.5 6.5 0 0 0 3.455 2.255q.885.212 1.718.579 1.037.74 1.931 1.646c.925.711 1.839 1.443 2.784 2.134a57 57 0 0 0 5.864 3.84 42 42 0 0 0 6.098 2.865c2.226.823 4.065.102 6.443.315l-.345 6.442s.793-1.484 1.697-3.251c.783-1.524 4.065-9.287 4.065-9.287 1.281-3.048 2.907-6.238 2.714-9.642-.163-2.753-.712-5.171-2.805-6.339-.173-3.17-.894-4.715-3.12-6.411a12.3 12.3 0 0 0-5.498-2.032 22.4 22.4 0 0 0-6.677.233c-3.293.529-6.586 1.372-9.919 1.199a15.9 15.9 0 0 0-5.326.335 5.402 5.402 0 0 0-3.73 5.274c-.071 1.209.895 3.2 1.748 3.464"/><path fill="#e8f5e9" d="M336.984 130.506c0 2.032 1.87 4.907 4.715 7.386a14 14 0 0 0 .153 5.67c.175.578.442 1.123.793 1.615a1.626 1.626 0 0 0 1.189.752c.66 0 .924-.345 1.128-.864q.45-.985 1.016-1.91a4.6 4.6 0 0 1 .579-.731c1.017-.925 3.954-2.032 5.326 1.097s-1.2 7.559-3.578 8.22c-4.065 1.148-4.99-1.646-4.99-1.646l.071 13.553c-1.148 3.434-7.51 6.777-12.632 6.096-5.122-.68-3.496-3.769-1.413-5.862l-.264-4.704c-1.823.18-3.663.112-5.468-.203-2.124-.407-3.872-2.398-4.756-5.639a49.4 49.4 0 0 1-.61-18.817c.773-3.82 1.718-5.466 2.175-5.913 0 .833 1.596 3.383 5.732 3.952 4.37.63 7.683-.751 10.834-2.052"/><path fill="#c8e6c9" d="M329.057 159.198c3.78-.345 6.85-.864 8.984-2.032 1.565-.823 2.916-3.393 3.323-4.308 0 0-.102 3.516-2.205 5.466-2.968 2.754-9.991 2.754-9.991 2.754z"/><path fill="#263238" d="M331.038 141.946a1.38 1.38 0 0 0 .843 1.255 1.38 1.38 0 0 0 1.485-.282 1.365 1.365 0 0 0-.158-2.1 1.37 1.37 0 0 0-.747-.255 1.41 1.41 0 0 0-.997.397 1.39 1.39 0 0 0-.426.985M331.536 137.466l3.324 1.371a1.876 1.876 0 0 0-1.017-2.397 1.7 1.7 0 0 0-.688-.13 1.73 1.73 0 0 0-1.254.557 1.75 1.75 0 0 0-.365.599"/><path fill="#388e3b" d="m332.837 149.343-5.081 2.032a2.667 2.667 0 0 0 2.471 1.781c.362.007.721-.06 1.055-.196a2.855 2.855 0 0 0 1.555-3.617"/><path fill="#c8e6c9" d="M329.88 152.909a2 2 0 0 0 0 .254c.477.077.966.021 1.413-.163a2.82 2.82 0 0 0 1.707-2.621 2.5 2.5 0 0 0-.549-.061 2.59 2.59 0 0 0-2.571 2.591"/><path fill="#263238" d="m319.097 138.756 3.283-1.27a1.7 1.7 0 0 0-.897-.982 1.72 1.72 0 0 0-1.329-.034 1.79 1.79 0 0 0-1.057 2.286M319.941 141.652a1.39 1.39 0 0 0 1.331 1.473 1.431 1.431 0 0 0 1.164-2.389 1.43 1.43 0 0 0-1.557-.385 1.435 1.435 0 0 0-.938 1.301"/><path fill="#c8e6c9" d="m327.238 148.672-5.062-.955 4.777-8.087z"/><path fill="#e8f5e9" d="M354.85 165.243c6.332 1.098 10.163 3.13 11.789 8.128 2.307 7.112 8.761 27.26 10.092 34.423.813 4.399 2.084 7.183-1.646 10.078a264 264 0 0 1-27.786 17.577c-8.455 4.43-21.22 5.304-21.22 5.304l9.258-5.598 1.647-3.14 24.747-21.915-9.35-27.615s-2.358-14.194 2.469-17.242"/><path fill="#c8e6c9" d="M361.731 210.1a14.1 14.1 0 0 1 6.504-1.565s-2.195-1.89-7.043 0z"/><path fill="#455a64" d="M353.976 164.999c2.897.539 6.098.854 9.045 2.723 2.948 1.87 3.486 4.135 5.753 11.115s4.939 17.272 4.939 17.272-5.549 4.694-15.102 4.826c0 0-4.706-13.055-5.864-15.961-1.159-2.906-4.076-12.273 1.229-19.975"/><path fill="#4caf4f" d="M343.773 227.717v.874a2.46 2.46 0 0 1-1.179 2.154l-23.07 14.001a2.5 2.5 0 0 1-2.449 0l-43.457-23.795a2.49 2.49 0 0 1-1.271-2.103v-.59l45.927 25.177z"/><path fill="#fff" d="M343.773 227.717v.874a2.46 2.46 0 0 1-1.179 2.154l-23.07 14.001a2.5 2.5 0 0 1-2.449 0l-43.457-23.795a2.49 2.49 0 0 1-1.271-2.103v-.59l45.927 25.177z" opacity=".5"/><path fill="#103e13" d="M343.773 227.717v.874a2.46 2.46 0 0 1-1.179 2.154l-23.07 14.001a2.5 2.5 0 0 1-2.449 0l-43.457-23.795a2.49 2.49 0 0 1-1.271-2.103v-.59l45.927 25.177z" opacity=".1"/><path fill="#4caf4f" d="m272.337 218.258 25.113-15.24a1.48 1.48 0 0 1 1.463 0l44.717 24.506a.326.326 0 0 1 0 .559l-25.356 15.393z"/><path fill="#fff" d="m272.337 218.258 25.113-15.24a1.48 1.48 0 0 1 1.463 0l44.717 24.506a.326.326 0 0 1 0 .559l-25.356 15.393z" opacity=".85"/><path fill="#4caf4f" d="m318.05 241.047 13.547-8.219-40.225-22.047-13.618 8.178z"/><path fill="#fff" d="m318.05 241.047 13.547-8.219-40.225-22.047-13.618 8.178z" opacity=".6"/><path fill="#4caf4f" d="m324.717 219.112-.254.152-6.636 4.034-12.115-6.645-.254-.132 6.891-4.186z"/><path fill="#4caf4f" d="m324.463 219.264-6.636 4.034-12.115-6.645 6.647-4.023z"/><path fill="#fff" d="m324.463 219.264-6.636 4.034-12.115-6.645 6.647-4.023z" opacity=".6"/><path fill="#4caf4f" d="M318.264 243.435v1.626a2.4 2.4 0 0 1-1.23-.295l-43.416-23.815a2.49 2.49 0 0 1-1.271-2.103v-.59z"/><path fill="#fff" d="M318.264 243.435v1.626a2.4 2.4 0 0 1-1.23-.295l-43.416-23.815a2.49 2.49 0 0 1-1.271-2.103v-.59z" opacity=".03"/><path fill="#103e13" d="M318.264 243.435v1.626a2.4 2.4 0 0 1-1.23-.295l-43.416-23.815a2.49 2.49 0 0 1-1.271-2.103v-.59z" opacity=".2"/><path fill="#4caf4f" d="M317.583 243.811a2.89 2.89 0 0 1-2.511-.142l-43.253-23.714a2.94 2.94 0 0 1-1.464-2.032l-5.284-27.777a2.5 2.5 0 0 1 0-.478 2.9 2.9 0 0 1 .813-2.083l44.9 24.648a2.115 2.115 0 0 1 1.077 1.474z"/><path fill="#fff" d="M317.583 243.811a2.89 2.89 0 0 1-2.511-.142l-43.253-23.714a2.94 2.94 0 0 1-1.464-2.032l-5.284-27.777a2.5 2.5 0 0 1 0-.478 2.9 2.9 0 0 1 .813-2.083l44.9 24.648a2.115 2.115 0 0 1 1.077 1.474z" opacity=".4"/><path fill="#4caf4f" d="m318.264 243.435-.285.173a3 3 0 0 1-.396.203l-5.722-30.064a2.12 2.12 0 0 0-1.077-1.473l-44.951-24.648q.257-.275.579-.468l45.053 24.689a2.18 2.18 0 0 1 1.077 1.484z"/><path fill="#fff" d="m318.264 243.435-.285.173a3 3 0 0 1-.396.203l-5.722-30.064a2.12 2.12 0 0 0-1.077-1.473l-44.951-24.648q.257-.275.579-.468l45.053 24.689a2.18 2.18 0 0 1 1.077 1.484z" opacity=".6"/><path fill="#4caf4f" d="m311.444 212.833.671-.406c.212.263.359.573.427.904l5.722 30.104-.285.173a3 3 0 0 1-.396.203l-5.722-30.064a2.1 2.1 0 0 0-.417-.914"/><path fill="#fff" d="m311.444 212.833.671-.406c.212.263.359.573.427.904l5.722 30.104-.285.173a3 3 0 0 1-.396.203l-5.722-30.064a2.1 2.1 0 0 0-.417-.914" opacity=".5"/><path fill="#103e13" d="m311.444 212.833.671-.406c.212.263.359.573.427.904l5.722 30.104-.285.173a3 3 0 0 1-.396.203l-5.722-30.064a2.1 2.1 0 0 0-.417-.914" opacity=".1"/><path fill="#455a64" d="M292.958 218.604a9.45 9.45 0 0 0-4.431-5.446c-2.084-1.138-3.496-.569-3.141 1.301.356 1.869 2.338 4.287 4.432 5.435 2.093 1.148 3.496.569 3.14-1.29"/><path fill="#e8f5e9" d="M344.616 225.259c-2.419 1.696-5.681.325-8.892.711-3.212.386-5.956 1.178-8.537 1.107s-3.842.447-2.033 2.51 6.982.874 8.385 1.504a3.05 3.05 0 0 1 1.483 2.219 3.05 3.05 0 0 1-.833 2.535c-1.514 1.758 8.618-1.635 9.97-3.718s2.286-6.604.457-6.868"/></svg>