<svg xmlns="http://www.w3.org/2000/svg" fill="none" viewBox="0 0 48 48"><g clip-path="url(#a)"><path fill="#263238" fill-rule="evenodd" d="M14 4c5.523 0 10 4.477 10 10V4h10c5.523 0 10 4.477 10 10s-4.477 10-10 10c5.523 0 10 4.477 10 10a9.97 9.97 0 0 1-2.891 7.033l-.038.038-.033.033A9.97 9.97 0 0 1 34 44a9.97 9.97 0 0 1-7.136-2.995A9.97 9.97 0 0 1 24 34c0 5.523-4.477 10-10 10S4 39.523 4 34V24h10C8.477 24 4 19.523 4 14S8.477 4 14 4m8 10a8 8 0 0 1-8 8V6a8 8 0 0 1 8 8m20 20a8 8 0 1 0-16 0zM6 26v8a8 8 0 1 0 16 0v-8zm20-4V6h8a8 8 0 1 1 0 16z" clip-rule="evenodd"/></g><defs><clipPath id="a"><path fill="#fff" d="M4 4h40v40H4z"/></clipPath></defs></svg>