<svg xmlns="http://www.w3.org/2000/svg" fill="none" viewBox="0 0 48 48"><g clip-path="url(#a)"><path fill="#3b4158" fill-rule="evenodd" d="M13.986 13.961 4 23.847a28.3 28.3 0 0 0 6.767 4.947A13.9 13.9 0 0 0 14 33.746c5.523 5.468 14.477 5.468 20 0a13.9 13.9 0 0 0 3.233-4.952A28.3 28.3 0 0 0 44 23.847l-9.978-9.878-.022-.022c-5.523-5.467-14.477-5.467-20 0zm19.059 16.617a28.55 28.55 0 0 1-18.09 0q.474.622 1.045 1.188c4.418 4.374 11.582 4.374 16 0q.572-.566 1.044-1.188m-16.84-14.849a14.268 14.268 0 0 0 15.59 0c-4.363-4.11-11.227-4.11-15.59 0" clip-rule="evenodd"/></g><defs><clipPath id="a"><path fill="#fff" d="M4 9.847h40v28H4z"/></clipPath></defs></svg>