<svg xmlns="http://www.w3.org/2000/svg" fill="none" viewBox="0 0 55 48"><g clip-path="url(#a)"><path fill="#000" d="M54.996 19.517a.5.5 0 0 0 0-.126.3.3 0 0 0 0-.103l-.408-2.932a1.9 1.9 0 0 0-.454-.948l-.07-.08-.127-.125-7.054-5.957.198.194a1.7 1.7 0 0 0-.595-.444 1.7 1.7 0 0 0-.732-.149h-2.142a1.57 1.57 0 0 0-.966.308 1.7 1.7 0 0 0-1-.308h-2.143a1.6 1.6 0 0 0-.803.198 1.6 1.6 0 0 0-.593.567 1.57 1.57 0 0 0-.233 1.14l.268 1.85a1.2 1.2 0 0 0-.582-.149H27.189c-.372.002-.736.11-1.048.308-.301.185-.544.45-.698.765l-.803-.674a1.68 1.68 0 0 0-1.164-.433H7.204a2.2 2.2 0 0 0-1.06.297c-.438.251-.76.66-.896 1.14L.08 30.803c-.096.28-.106.58-.027.865a1.48 1.48 0 0 0 .656.87s-.105-.069-.163-.126l7.053 5.968c.299.27.689.42 1.094.422h16.4a2.16 2.16 0 0 0 1.06-.308c.18-.097.342-.224.477-.377l.058-.08.093-.114.07-.125.768.65c.294.259.676.401 1.071.4h16.435a2.22 2.22 0 0 0 1.537-.685l.058-.08.093-.114q.075-.108.128-.228.058-.105.093-.217l4.714-15.473v-.137a.7.7 0 0 0 0-.16v-.103a.3.3 0 0 0 0-.102 1.5 1.5 0 0 0 0-.217h1.513q.198.018.396 0h.105q.128-.038.244-.103h.117l.21-.16.092-.068.163-.206v-.068l.117-.194a.3.3 0 0 1 0-.114.1.1 0 0 1 0-.057q.037-.1.058-.206a.15.15 0 0 1 0-.068.3.3 0 0 1 0-.103s.233-.445.233-.468"/><path fill="#fff" d="M23.953 13.72a.4.4 0 0 1 .105.445L18.9 31.099a.8.8 0 0 1-.372.433 1 1 0 0 1-.477.16H1.663a.58.58 0 0 1-.372-.16.4.4 0 0 1-.105-.433l5.168-16.934a.8.8 0 0 1 .36-.445c.145-.087.309-.138.478-.149H23.58a.55.55 0 0 1 .373.149m-8.555 13.967 3.084-10.11H9.846l-3.073 10.11zM39.597 13.89a.57.57 0 0 0 .453.194h2.13a.49.49 0 0 0 .408-.217.48.48 0 0 0 .081-.365l-.419-3.013a.95.95 0 0 0-.21-.376.57.57 0 0 0-.453-.194h-2.13a.49.49 0 0 0-.407.217c-.082.16-.117.262-.082.353l.43 3.013a.7.7 0 0 0 .198.388m6.762-3.423a.95.95 0 0 0-.21-.377.55.55 0 0 0-.442-.194h-2.141a.45.45 0 0 0-.396.217.47.47 0 0 0-.093.354l.43 3.012a.77.77 0 0 0 .198.388.6.6 0 0 0 .454.194h2.142a.46.46 0 0 0 .396-.217.43.43 0 0 0 .081-.365zm-8.637 4.564-.209-1.483H27.189a.9.9 0 0 0-.454.148.67.67 0 0 0-.338.445l-.861 2.83a.38.38 0 0 0 .07.433c.098.09.226.144.36.149h12.548l-3.085 10.11H22.917a.9.9 0 0 0-.454.137.78.78 0 0 0-.338.445l-.872 2.83a.41.41 0 0 0 .081.433.54.54 0 0 0 .36.16H38.13c.17-.014.334-.069.477-.16.172-.094.3-.249.36-.433l4.727-15.474h-5.32a.63.63 0 0 1-.454-.182.8.8 0 0 1-.198-.365z"/></g><defs><clipPath id="a"><path fill="#fff" d="M0 8.847h55v30H0z"/></clipPath></defs></svg>